<mxfile host="app.diagrams.net" agent="Mozilla/5.0 (Windows NT 10.0; Win64; x64) AppleWebKit/537.36 (KHTML, like Gecko) Chrome/134.0.0.0 Safari/537.36" version="26.1.0">
  <diagram id="C5RBs43oDa-KdzZeNtuy" name="Page-1">
    <mxGraphModel dx="4279" dy="2577" grid="1" gridSize="10" guides="1" tooltips="1" connect="1" arrows="1" fold="1" page="1" pageScale="1" pageWidth="827" pageHeight="1169" math="0" shadow="0">
      <root>
        <mxCell id="WIyWlLk6GJQsqaUBKTNV-0" />
        <mxCell id="WIyWlLk6GJQsqaUBKTNV-1" parent="WIyWlLk6GJQsqaUBKTNV-0" />
        <mxCell id="m4PaVz9kTDVC2fhNwPpV-4" value="BookingEntity" style="swimlane;fontStyle=0;childLayout=stackLayout;horizontal=1;startSize=26;fillColor=#dae8fc;horizontalStack=0;resizeParent=1;resizeParentMax=0;resizeLast=0;collapsible=1;marginBottom=0;whiteSpace=wrap;html=1;strokeColor=#6c8ebf;" parent="WIyWlLk6GJQsqaUBKTNV-1" vertex="1">
          <mxGeometry x="320" y="250.5" width="320" height="346" as="geometry" />
        </mxCell>
        <mxCell id="m4PaVz9kTDVC2fhNwPpV-5" value="- bookingId: int" style="text;strokeColor=none;fillColor=none;align=left;verticalAlign=top;spacingLeft=4;spacingRight=4;overflow=hidden;rotatable=0;points=[[0,0.5],[1,0.5]];portConstraint=eastwest;whiteSpace=wrap;html=1;" parent="m4PaVz9kTDVC2fhNwPpV-4" vertex="1">
          <mxGeometry y="26" width="320" height="26" as="geometry" />
        </mxCell>
        <mxCell id="m4PaVz9kTDVC2fhNwPpV-6" value="- oRentableEntity: RentableEntity" style="text;strokeColor=none;fillColor=none;align=left;verticalAlign=top;spacingLeft=4;spacingRight=4;overflow=hidden;rotatable=0;points=[[0,0.5],[1,0.5]];portConstraint=eastwest;whiteSpace=wrap;html=1;" parent="m4PaVz9kTDVC2fhNwPpV-4" vertex="1">
          <mxGeometry y="52" width="320" height="26" as="geometry" />
        </mxCell>
        <mxCell id="-0rxYAURBGDoNV16Kf09-72" value="- oClient: ClientEntity" style="text;strokeColor=none;fillColor=none;align=left;verticalAlign=top;spacingLeft=4;spacingRight=4;overflow=hidden;rotatable=0;points=[[0,0.5],[1,0.5]];portConstraint=eastwest;whiteSpace=wrap;html=1;" parent="m4PaVz9kTDVC2fhNwPpV-4" vertex="1">
          <mxGeometry y="78" width="320" height="26" as="geometry" />
        </mxCell>
        <mxCell id="-0rxYAURBGDoNV16Kf09-1" value="- initBooking: DateOnly" style="text;strokeColor=none;fillColor=none;align=left;verticalAlign=top;spacingLeft=4;spacingRight=4;overflow=hidden;rotatable=0;points=[[0,0.5],[1,0.5]];portConstraint=eastwest;whiteSpace=wrap;html=1;" parent="m4PaVz9kTDVC2fhNwPpV-4" vertex="1">
          <mxGeometry y="104" width="320" height="26" as="geometry" />
        </mxCell>
        <mxCell id="-0rxYAURBGDoNV16Kf09-2" value="- endBooking: DateOnly" style="text;strokeColor=none;fillColor=none;align=left;verticalAlign=top;spacingLeft=4;spacingRight=4;overflow=hidden;rotatable=0;points=[[0,0.5],[1,0.5]];portConstraint=eastwest;whiteSpace=wrap;html=1;" parent="m4PaVz9kTDVC2fhNwPpV-4" vertex="1">
          <mxGeometry y="130" width="320" height="26" as="geometry" />
        </mxCell>
        <mxCell id="m4PaVz9kTDVC2fhNwPpV-25" value="- daysBooked: Int" style="text;strokeColor=none;fillColor=none;align=left;verticalAlign=top;spacingLeft=4;spacingRight=4;overflow=hidden;rotatable=0;points=[[0,0.5],[1,0.5]];portConstraint=eastwest;whiteSpace=wrap;html=1;" parent="m4PaVz9kTDVC2fhNwPpV-4" vertex="1">
          <mxGeometry y="156" width="320" height="26" as="geometry" />
        </mxCell>
        <mxCell id="-0rxYAURBGDoNV16Kf09-3" value="- finalPrice: decimal" style="text;strokeColor=none;fillColor=none;align=left;verticalAlign=top;spacingLeft=4;spacingRight=4;overflow=hidden;rotatable=0;points=[[0,0.5],[1,0.5]];portConstraint=eastwest;whiteSpace=wrap;html=1;" parent="m4PaVz9kTDVC2fhNwPpV-4" vertex="1">
          <mxGeometry y="182" width="320" height="26" as="geometry" />
        </mxCell>
        <mxCell id="m4PaVz9kTDVC2fhNwPpV-8" value="- oStrategySelected: IStrategyFinalPriceBooking" style="text;strokeColor=none;fillColor=none;align=left;verticalAlign=top;spacingLeft=4;spacingRight=4;overflow=hidden;rotatable=0;points=[[0,0.5],[1,0.5]];portConstraint=eastwest;whiteSpace=wrap;html=1;" parent="m4PaVz9kTDVC2fhNwPpV-4" vertex="1">
          <mxGeometry y="208" width="320" height="26" as="geometry" />
        </mxCell>
        <mxCell id="-0rxYAURBGDoNV16Kf09-4" value="- isPaid: bool" style="text;strokeColor=none;fillColor=none;align=left;verticalAlign=top;spacingLeft=4;spacingRight=4;overflow=hidden;rotatable=0;points=[[0,0.5],[1,0.5]];portConstraint=eastwest;whiteSpace=wrap;html=1;" parent="m4PaVz9kTDVC2fhNwPpV-4" vertex="1">
          <mxGeometry y="234" width="320" height="26" as="geometry" />
        </mxCell>
        <mxCell id="PpOj1krbx0FKZyaxwS8G-9" value="- createdAt: DateTime" style="text;strokeColor=none;fillColor=none;align=left;verticalAlign=top;spacingLeft=4;spacingRight=4;overflow=hidden;rotatable=0;points=[[0,0.5],[1,0.5]];portConstraint=eastwest;whiteSpace=wrap;html=1;" vertex="1" parent="m4PaVz9kTDVC2fhNwPpV-4">
          <mxGeometry y="260" width="320" height="26" as="geometry" />
        </mxCell>
        <mxCell id="PpOj1krbx0FKZyaxwS8G-10" value="- isDeleted: Bool" style="text;strokeColor=none;fillColor=none;align=left;verticalAlign=top;spacingLeft=4;spacingRight=4;overflow=hidden;rotatable=0;points=[[0,0.5],[1,0.5]];portConstraint=eastwest;whiteSpace=wrap;html=1;" vertex="1" parent="m4PaVz9kTDVC2fhNwPpV-4">
          <mxGeometry y="286" width="320" height="26" as="geometry" />
        </mxCell>
        <mxCell id="-0rxYAURBGDoNV16Kf09-71" value="" style="line;strokeWidth=1;fillColor=none;align=left;verticalAlign=middle;spacingTop=-1;spacingLeft=3;spacingRight=3;rotatable=0;labelPosition=right;points=[];portConstraint=eastwest;strokeColor=inherit;" parent="m4PaVz9kTDVC2fhNwPpV-4" vertex="1">
          <mxGeometry y="312" width="320" height="8" as="geometry" />
        </mxCell>
        <mxCell id="-0rxYAURBGDoNV16Kf09-70" value="+ Getter / Setter" style="text;strokeColor=none;fillColor=none;align=left;verticalAlign=top;spacingLeft=4;spacingRight=4;overflow=hidden;rotatable=0;points=[[0,0.5],[1,0.5]];portConstraint=eastwest;whiteSpace=wrap;html=1;" parent="m4PaVz9kTDVC2fhNwPpV-4" vertex="1">
          <mxGeometry y="320" width="320" height="26" as="geometry" />
        </mxCell>
        <mxCell id="m4PaVz9kTDVC2fhNwPpV-11" value="&lt;p style=&quot;margin:0px;margin-top:4px;text-align:center;&quot;&gt;&lt;i&gt;&amp;lt;&amp;lt;Interface&amp;gt;&amp;gt;&lt;/i&gt;&lt;br&gt;&lt;b&gt;IStrategyFinalPriceBooking&lt;/b&gt;&lt;/p&gt;&lt;hr size=&quot;1&quot; style=&quot;border-style:solid;&quot;&gt;&lt;p style=&quot;margin:0px;margin-left:4px;&quot;&gt;+ CalculateTotalPriceBooking(decimal entityCostUsage, int daysBooked): decimal&lt;/p&gt;" style="verticalAlign=top;align=left;overflow=fill;html=1;whiteSpace=wrap;fillColor=#dae8fc;strokeColor=#6c8ebf;shadow=0;fillStyle=auto;" parent="WIyWlLk6GJQsqaUBKTNV-1" vertex="1">
          <mxGeometry x="-320" y="320" width="480" height="80" as="geometry" />
        </mxCell>
        <mxCell id="m4PaVz9kTDVC2fhNwPpV-12" value="" style="endArrow=diamondThin;endFill=1;endSize=24;html=1;rounded=0;entryX=0;entryY=0.5;entryDx=0;entryDy=0;exitX=1;exitY=0.5;exitDx=0;exitDy=0;" parent="WIyWlLk6GJQsqaUBKTNV-1" source="m4PaVz9kTDVC2fhNwPpV-11" edge="1" target="m4PaVz9kTDVC2fhNwPpV-8">
          <mxGeometry width="160" relative="1" as="geometry">
            <mxPoint x="170" y="370" as="sourcePoint" />
            <mxPoint x="320" y="359.0039999999999" as="targetPoint" />
            <Array as="points">
              <mxPoint x="200" y="360" />
              <mxPoint x="200" y="472" />
            </Array>
          </mxGeometry>
        </mxCell>
        <mxCell id="m4PaVz9kTDVC2fhNwPpV-14" value="CashStrategy" style="swimlane;fontStyle=0;childLayout=stackLayout;horizontal=1;startSize=26;fillColor=#f8cecc;horizontalStack=0;resizeParent=1;resizeParentMax=0;resizeLast=0;collapsible=1;marginBottom=0;whiteSpace=wrap;html=1;strokeColor=#b85450;" parent="WIyWlLk6GJQsqaUBKTNV-1" vertex="1">
          <mxGeometry x="-320" y="160" width="480" height="52" as="geometry" />
        </mxCell>
        <mxCell id="m4PaVz9kTDVC2fhNwPpV-15" value="+ CalculateTotalPriceBooking(decimal entityCostUsage, int daysBooked): decimal" style="text;strokeColor=none;fillColor=none;align=left;verticalAlign=top;spacingLeft=4;spacingRight=4;overflow=hidden;rotatable=0;points=[[0,0.5],[1,0.5]];portConstraint=eastwest;whiteSpace=wrap;html=1;" parent="m4PaVz9kTDVC2fhNwPpV-14" vertex="1">
          <mxGeometry y="26" width="480" height="26" as="geometry" />
        </mxCell>
        <mxCell id="m4PaVz9kTDVC2fhNwPpV-18" value="CreditCardSrategy" style="swimlane;fontStyle=0;childLayout=stackLayout;horizontal=1;startSize=26;fillColor=#f8cecc;horizontalStack=0;resizeParent=1;resizeParentMax=0;resizeLast=0;collapsible=1;marginBottom=0;whiteSpace=wrap;html=1;strokeColor=#b85450;" parent="WIyWlLk6GJQsqaUBKTNV-1" vertex="1">
          <mxGeometry x="-920" y="160" width="480" height="52" as="geometry" />
        </mxCell>
        <mxCell id="m4PaVz9kTDVC2fhNwPpV-19" value="+ CalculateTotalPriceBooking(decimal entityCostUsage, int daysBooked): decimal" style="text;strokeColor=none;fillColor=none;align=left;verticalAlign=top;spacingLeft=4;spacingRight=4;overflow=hidden;rotatable=0;points=[[0,0.5],[1,0.5]];portConstraint=eastwest;whiteSpace=wrap;html=1;" parent="m4PaVz9kTDVC2fhNwPpV-18" vertex="1">
          <mxGeometry y="26" width="480" height="26" as="geometry" />
        </mxCell>
        <mxCell id="m4PaVz9kTDVC2fhNwPpV-20" value="TransferStrategy" style="swimlane;fontStyle=0;childLayout=stackLayout;horizontal=1;startSize=26;fillColor=#f8cecc;horizontalStack=0;resizeParent=1;resizeParentMax=0;resizeLast=0;collapsible=1;marginBottom=0;whiteSpace=wrap;html=1;strokeColor=#b85450;" parent="WIyWlLk6GJQsqaUBKTNV-1" vertex="1">
          <mxGeometry x="-920" y="334" width="480" height="52" as="geometry" />
        </mxCell>
        <mxCell id="m4PaVz9kTDVC2fhNwPpV-21" value="+ CalculateTotalPriceBooking(decimal entityCostUsage, int daysBooked): decimal" style="text;strokeColor=none;fillColor=none;align=left;verticalAlign=top;spacingLeft=4;spacingRight=4;overflow=hidden;rotatable=0;points=[[0,0.5],[1,0.5]];portConstraint=eastwest;whiteSpace=wrap;html=1;" parent="m4PaVz9kTDVC2fhNwPpV-20" vertex="1">
          <mxGeometry y="26" width="480" height="26" as="geometry" />
        </mxCell>
        <mxCell id="m4PaVz9kTDVC2fhNwPpV-22" value="" style="endArrow=block;dashed=1;endFill=0;endSize=12;html=1;rounded=0;exitX=1;exitY=0.5;exitDx=0;exitDy=0;entryX=0;entryY=0.5;entryDx=0;entryDy=0;" parent="WIyWlLk6GJQsqaUBKTNV-1" source="m4PaVz9kTDVC2fhNwPpV-20" target="m4PaVz9kTDVC2fhNwPpV-11" edge="1">
          <mxGeometry width="160" relative="1" as="geometry">
            <mxPoint x="-560" y="470" as="sourcePoint" />
            <mxPoint x="-400" y="470" as="targetPoint" />
          </mxGeometry>
        </mxCell>
        <mxCell id="m4PaVz9kTDVC2fhNwPpV-23" value="" style="endArrow=block;dashed=1;endFill=0;endSize=12;html=1;rounded=0;exitX=1;exitY=1;exitDx=0;exitDy=0;entryX=0;entryY=0;entryDx=0;entryDy=0;" parent="WIyWlLk6GJQsqaUBKTNV-1" source="m4PaVz9kTDVC2fhNwPpV-18" target="m4PaVz9kTDVC2fhNwPpV-11" edge="1">
          <mxGeometry width="160" relative="1" as="geometry">
            <mxPoint x="-473" y="250" as="sourcePoint" />
            <mxPoint x="-353" y="250" as="targetPoint" />
          </mxGeometry>
        </mxCell>
        <mxCell id="m4PaVz9kTDVC2fhNwPpV-24" value="" style="endArrow=block;dashed=1;endFill=0;endSize=12;html=1;rounded=0;exitX=0.5;exitY=1;exitDx=0;exitDy=0;entryX=0.5;entryY=0;entryDx=0;entryDy=0;" parent="WIyWlLk6GJQsqaUBKTNV-1" source="m4PaVz9kTDVC2fhNwPpV-14" target="m4PaVz9kTDVC2fhNwPpV-11" edge="1">
          <mxGeometry width="160" relative="1" as="geometry">
            <mxPoint x="-230" y="270" as="sourcePoint" />
            <mxPoint x="-110" y="270" as="targetPoint" />
          </mxGeometry>
        </mxCell>
        <mxCell id="m4PaVz9kTDVC2fhNwPpV-26" value="&lt;div&gt;&lt;i&gt;RentableEntity&lt;/i&gt;&lt;/div&gt;" style="swimlane;fontStyle=1;align=center;verticalAlign=top;childLayout=stackLayout;horizontal=1;startSize=26;horizontalStack=0;resizeParent=1;resizeParentMax=0;resizeLast=0;collapsible=1;marginBottom=0;whiteSpace=wrap;html=1;fillColor=#dae8fc;strokeColor=#6c8ebf;" parent="WIyWlLk6GJQsqaUBKTNV-1" vertex="1">
          <mxGeometry x="320" y="650" width="320" height="164" as="geometry" />
        </mxCell>
        <mxCell id="m4PaVz9kTDVC2fhNwPpV-27" value="- rentableId: Int" style="text;strokeColor=none;fillColor=none;align=left;verticalAlign=top;spacingLeft=4;spacingRight=4;overflow=hidden;rotatable=0;points=[[0,0.5],[1,0.5]];portConstraint=eastwest;whiteSpace=wrap;html=1;" parent="m4PaVz9kTDVC2fhNwPpV-26" vertex="1">
          <mxGeometry y="26" width="320" height="26" as="geometry" />
        </mxCell>
        <mxCell id="m4PaVz9kTDVC2fhNwPpV-30" value="- name: String" style="text;strokeColor=none;fillColor=none;align=left;verticalAlign=top;spacingLeft=4;spacingRight=4;overflow=hidden;rotatable=0;points=[[0,0.5],[1,0.5]];portConstraint=eastwest;whiteSpace=wrap;html=1;" parent="m4PaVz9kTDVC2fhNwPpV-26" vertex="1">
          <mxGeometry y="52" width="320" height="26" as="geometry" />
        </mxCell>
        <mxCell id="m4PaVz9kTDVC2fhNwPpV-31" value="- description: String" style="text;strokeColor=none;fillColor=none;align=left;verticalAlign=top;spacingLeft=4;spacingRight=4;overflow=hidden;rotatable=0;points=[[0,0.5],[1,0.5]];portConstraint=eastwest;whiteSpace=wrap;html=1;" parent="m4PaVz9kTDVC2fhNwPpV-26" vertex="1">
          <mxGeometry y="78" width="320" height="26" as="geometry" />
        </mxCell>
        <mxCell id="m4PaVz9kTDVC2fhNwPpV-32" value="- costUsagePerDay: Decimal" style="text;strokeColor=none;fillColor=none;align=left;verticalAlign=top;spacingLeft=4;spacingRight=4;overflow=hidden;rotatable=0;points=[[0,0.5],[1,0.5]];portConstraint=eastwest;whiteSpace=wrap;html=1;" parent="m4PaVz9kTDVC2fhNwPpV-26" vertex="1">
          <mxGeometry y="104" width="320" height="26" as="geometry" />
        </mxCell>
        <mxCell id="-0rxYAURBGDoNV16Kf09-69" value="" style="line;strokeWidth=1;fillColor=none;align=left;verticalAlign=middle;spacingTop=-1;spacingLeft=3;spacingRight=3;rotatable=0;labelPosition=right;points=[];portConstraint=eastwest;strokeColor=inherit;" parent="m4PaVz9kTDVC2fhNwPpV-26" vertex="1">
          <mxGeometry y="130" width="320" height="8" as="geometry" />
        </mxCell>
        <mxCell id="-0rxYAURBGDoNV16Kf09-68" value="+ Getter / Setter" style="text;strokeColor=none;fillColor=none;align=left;verticalAlign=top;spacingLeft=4;spacingRight=4;overflow=hidden;rotatable=0;points=[[0,0.5],[1,0.5]];portConstraint=eastwest;whiteSpace=wrap;html=1;" parent="m4PaVz9kTDVC2fhNwPpV-26" vertex="1">
          <mxGeometry y="138" width="320" height="26" as="geometry" />
        </mxCell>
        <mxCell id="qjLI-L57XUs-h8wpZ4Zj-0" value="" style="endArrow=diamondThin;endFill=1;endSize=24;html=1;rounded=0;exitX=1;exitY=0.5;exitDx=0;exitDy=0;entryX=1;entryY=0.5;entryDx=0;entryDy=0;" parent="WIyWlLk6GJQsqaUBKTNV-1" source="m4PaVz9kTDVC2fhNwPpV-27" target="m4PaVz9kTDVC2fhNwPpV-6" edge="1">
          <mxGeometry width="160" relative="1" as="geometry">
            <mxPoint x="350" y="540" as="sourcePoint" />
            <mxPoint x="587" y="590" as="targetPoint" />
            <Array as="points">
              <mxPoint x="720" y="690" />
              <mxPoint x="720" y="316" />
            </Array>
          </mxGeometry>
        </mxCell>
        <mxCell id="gw679d61oDOW8X4mK3xs-9" value="BookingController" style="swimlane;fontStyle=1;align=center;verticalAlign=top;childLayout=stackLayout;horizontal=1;startSize=26;horizontalStack=0;resizeParent=1;resizeParentMax=0;resizeLast=0;collapsible=1;marginBottom=0;whiteSpace=wrap;html=1;fillColor=#d5e8d4;strokeColor=#82b366;" parent="WIyWlLk6GJQsqaUBKTNV-1" vertex="1">
          <mxGeometry x="790" y="100" width="1000" height="320" as="geometry" />
        </mxCell>
        <mxCell id="gw679d61oDOW8X4mK3xs-13" value="- oIBookingDao: IBookingDao" style="text;strokeColor=none;fillColor=none;align=left;verticalAlign=top;spacingLeft=4;spacingRight=4;overflow=hidden;rotatable=0;points=[[0,0.5],[1,0.5]];portConstraint=eastwest;whiteSpace=wrap;html=1;" parent="gw679d61oDOW8X4mK3xs-9" vertex="1">
          <mxGeometry y="26" width="1000" height="26" as="geometry" />
        </mxCell>
        <mxCell id="gw679d61oDOW8X4mK3xs-11" value="" style="line;strokeWidth=1;fillColor=none;align=left;verticalAlign=middle;spacingTop=-1;spacingLeft=3;spacingRight=3;rotatable=0;labelPosition=right;points=[];portConstraint=eastwest;strokeColor=inherit;" parent="gw679d61oDOW8X4mK3xs-9" vertex="1">
          <mxGeometry y="52" width="1000" height="8" as="geometry" />
        </mxCell>
        <mxCell id="gw679d61oDOW8X4mK3xs-12" value="+ CreateBooking(int entityToRentId, DateTime initBooking, DateTime endBooking, ClientEntity client,&amp;nbsp; IStrategyFinalPriceBooking strategySelected, bool isPaid): Void" style="text;strokeColor=none;fillColor=none;align=left;verticalAlign=top;spacingLeft=4;spacingRight=4;overflow=hidden;rotatable=0;points=[[0,0.5],[1,0.5]];portConstraint=eastwest;whiteSpace=wrap;html=1;" parent="gw679d61oDOW8X4mK3xs-9" vertex="1">
          <mxGeometry y="60" width="1000" height="26" as="geometry" />
        </mxCell>
        <mxCell id="gw679d61oDOW8X4mK3xs-14" value="+&amp;nbsp;UpdateBooking(int bookingId, int entityToRentId, DateTime initBooking, DateTime endBooking, ClientEntity client, IStrategyFinalPriceBooking strategySelected, bool isPaid): Void" style="text;strokeColor=none;fillColor=none;align=left;verticalAlign=top;spacingLeft=4;spacingRight=4;overflow=hidden;rotatable=0;points=[[0,0.5],[1,0.5]];portConstraint=eastwest;whiteSpace=wrap;html=1;" parent="gw679d61oDOW8X4mK3xs-9" vertex="1">
          <mxGeometry y="86" width="1000" height="26" as="geometry" />
        </mxCell>
        <mxCell id="gw679d61oDOW8X4mK3xs-15" value="+ GetBookingCoreData(int bookingId): BookingCoreDataDto&amp;nbsp;" style="text;strokeColor=none;fillColor=none;align=left;verticalAlign=top;spacingLeft=4;spacingRight=4;overflow=hidden;rotatable=0;points=[[0,0.5],[1,0.5]];portConstraint=eastwest;whiteSpace=wrap;html=1;" parent="gw679d61oDOW8X4mK3xs-9" vertex="1">
          <mxGeometry y="112" width="1000" height="26" as="geometry" />
        </mxCell>
        <mxCell id="gw679d61oDOW8X4mK3xs-16" value="+&amp;nbsp;GetVehicleBookings():&amp;nbsp;List&amp;lt;BookingVehicleDTO&amp;gt;&amp;nbsp;" style="text;strokeColor=none;fillColor=none;align=left;verticalAlign=top;spacingLeft=4;spacingRight=4;overflow=hidden;rotatable=0;points=[[0,0.5],[1,0.5]];portConstraint=eastwest;whiteSpace=wrap;html=1;" parent="gw679d61oDOW8X4mK3xs-9" vertex="1">
          <mxGeometry y="138" width="1000" height="26" as="geometry" />
        </mxCell>
        <mxCell id="gw679d61oDOW8X4mK3xs-17" value="+&amp;nbsp;GetPropertyBookings():&amp;nbsp;List&amp;lt;BookingPropertyDTO&amp;gt;&amp;nbsp;" style="text;strokeColor=none;fillColor=none;align=left;verticalAlign=top;spacingLeft=4;spacingRight=4;overflow=hidden;rotatable=0;points=[[0,0.5],[1,0.5]];portConstraint=eastwest;whiteSpace=wrap;html=1;" parent="gw679d61oDOW8X4mK3xs-9" vertex="1">
          <mxGeometry y="164" width="1000" height="26" as="geometry" />
        </mxCell>
        <mxCell id="PpOj1krbx0FKZyaxwS8G-13" value="+&amp;nbsp;GetIndumentaryBookings():&amp;nbsp;List&amp;lt;BookingIndumentaryDto&amp;gt;&amp;nbsp;" style="text;strokeColor=none;fillColor=none;align=left;verticalAlign=top;spacingLeft=4;spacingRight=4;overflow=hidden;rotatable=0;points=[[0,0.5],[1,0.5]];portConstraint=eastwest;whiteSpace=wrap;html=1;" vertex="1" parent="gw679d61oDOW8X4mK3xs-9">
          <mxGeometry y="190" width="1000" height="26" as="geometry" />
        </mxCell>
        <mxCell id="PpOj1krbx0FKZyaxwS8G-14" value="+&amp;nbsp;GetElectronicBookings():&amp;nbsp;List&amp;lt;BookingElectronicDto&amp;gt;&amp;nbsp;" style="text;strokeColor=none;fillColor=none;align=left;verticalAlign=top;spacingLeft=4;spacingRight=4;overflow=hidden;rotatable=0;points=[[0,0.5],[1,0.5]];portConstraint=eastwest;whiteSpace=wrap;html=1;" vertex="1" parent="gw679d61oDOW8X4mK3xs-9">
          <mxGeometry y="216" width="1000" height="26" as="geometry" />
        </mxCell>
        <mxCell id="PpOj1krbx0FKZyaxwS8G-15" value="+&amp;nbsp;CheckEntityAvailability(int entityToRentId, DateTime initBooking, DateTime endBooking): Bool" style="text;strokeColor=none;fillColor=none;align=left;verticalAlign=top;spacingLeft=4;spacingRight=4;overflow=hidden;rotatable=0;points=[[0,0.5],[1,0.5]];portConstraint=eastwest;whiteSpace=wrap;html=1;" vertex="1" parent="gw679d61oDOW8X4mK3xs-9">
          <mxGeometry y="242" width="1000" height="26" as="geometry" />
        </mxCell>
        <mxCell id="PpOj1krbx0FKZyaxwS8G-16" value="+&amp;nbsp;CheckAvailabilityForExistingBooking(int entityToRentId, int currentBookingId, DateTime initBooking, DateTime endBooking): Bool" style="text;strokeColor=none;fillColor=none;align=left;verticalAlign=top;spacingLeft=4;spacingRight=4;overflow=hidden;rotatable=0;points=[[0,0.5],[1,0.5]];portConstraint=eastwest;whiteSpace=wrap;html=1;" vertex="1" parent="gw679d61oDOW8X4mK3xs-9">
          <mxGeometry y="268" width="1000" height="26" as="geometry" />
        </mxCell>
        <mxCell id="PpOj1krbx0FKZyaxwS8G-17" value="+&amp;nbsp;GetDaysBooked(DateTime initBooking, DateTime endBooking): Int" style="text;strokeColor=none;fillColor=none;align=left;verticalAlign=top;spacingLeft=4;spacingRight=4;overflow=hidden;rotatable=0;points=[[0,0.5],[1,0.5]];portConstraint=eastwest;whiteSpace=wrap;html=1;" vertex="1" parent="gw679d61oDOW8X4mK3xs-9">
          <mxGeometry y="294" width="1000" height="26" as="geometry" />
        </mxCell>
        <mxCell id="gw679d61oDOW8X4mK3xs-18" value="Use" style="endArrow=open;endSize=12;dashed=1;html=1;rounded=0;entryX=1;entryY=0;entryDx=0;entryDy=0;exitX=0;exitY=0.5;exitDx=0;exitDy=0;" parent="WIyWlLk6GJQsqaUBKTNV-1" source="gw679d61oDOW8X4mK3xs-16" target="m4PaVz9kTDVC2fhNwPpV-4" edge="1">
          <mxGeometry width="160" relative="1" as="geometry">
            <mxPoint x="645" y="170" as="sourcePoint" />
            <mxPoint x="646" y="240" as="targetPoint" />
          </mxGeometry>
        </mxCell>
        <mxCell id="gw679d61oDOW8X4mK3xs-19" value="&lt;p style=&quot;margin:0px;margin-top:4px;text-align:center;&quot;&gt;&lt;i&gt;&amp;lt;&amp;lt;Interface&amp;gt;&amp;gt;&lt;/i&gt;&lt;br&gt;&lt;b&gt;IBookingDao&lt;/b&gt;&lt;/p&gt;&lt;hr size=&quot;1&quot; style=&quot;border-style:solid;&quot;&gt;&lt;p style=&quot;margin: 0px 0px 0px 4px;&quot;&gt;&lt;span style=&quot;background-color: transparent; color: light-dark(rgb(0, 0, 0), rgb(255, 255, 255));&quot;&gt;+&amp;nbsp;&lt;/span&gt;&lt;span style=&quot;background-color: transparent; color: light-dark(rgb(0, 0, 0), rgb(255, 255, 255));&quot;&gt;InsertEntity(BookingEntity booking, int entityToRent): Void&lt;/span&gt;&lt;/p&gt;&lt;p style=&quot;margin: 0px 0px 0px 4px;&quot;&gt;&lt;span style=&quot;background-color: transparent; color: light-dark(rgb(0, 0, 0), rgb(255, 255, 255));&quot;&gt;+&amp;nbsp;&lt;/span&gt;&lt;span style=&quot;background-color: transparent;&quot;&gt;UpdateEntity(int bookingId, BookingEntity booking, int entityToRentId): Void&lt;/span&gt;&lt;/p&gt;&lt;p style=&quot;margin: 0px 0px 0px 4px;&quot;&gt;&lt;span style=&quot;background-color: transparent; color: light-dark(rgb(0, 0, 0), rgb(255, 255, 255));&quot;&gt;+&amp;nbsp;&lt;/span&gt;&lt;span style=&quot;background-color: transparent;&quot;&gt;DeleteEntity(int bookingId): Void&lt;/span&gt;&lt;span style=&quot;background-color: transparent; color: light-dark(rgb(0, 0, 0), rgb(255, 255, 255));&quot;&gt;&amp;nbsp;&lt;/span&gt;&lt;/p&gt;&lt;p style=&quot;margin: 0px 0px 0px 4px;&quot;&gt;&lt;span style=&quot;background-color: transparent; color: light-dark(rgb(0, 0, 0), rgb(255, 255, 255));&quot;&gt;+&amp;nbsp;&lt;/span&gt;&lt;span style=&quot;background-color: transparent;&quot;&gt;GetPropertiesBooked():&amp;nbsp;&lt;/span&gt;&lt;span style=&quot;background-color: transparent;&quot;&gt;List&amp;lt;BookingPropertyDTO&amp;gt;&lt;/span&gt;&lt;/p&gt;&lt;p style=&quot;margin: 0px 0px 0px 4px;&quot;&gt;&lt;span style=&quot;background-color: transparent; color: light-dark(rgb(0, 0, 0), rgb(255, 255, 255));&quot;&gt;+&amp;nbsp;&lt;/span&gt;&lt;span style=&quot;background-color: transparent;&quot;&gt;GetVehiclesBooked():&amp;nbsp;&lt;/span&gt;&lt;span style=&quot;background-color: transparent;&quot;&gt;List&amp;lt;BookingVehicleDTO&amp;gt;&lt;/span&gt;&lt;/p&gt;&lt;p style=&quot;margin: 0px 0px 0px 4px;&quot;&gt;&lt;span style=&quot;background-color: transparent;&quot;&gt;+&amp;nbsp;&lt;/span&gt;&lt;span style=&quot;background-color: transparent;&quot;&gt;GetIndumentariesBooked():&amp;nbsp;&lt;/span&gt;&lt;span style=&quot;background-color: transparent;&quot;&gt;List&amp;lt;BookingIndumentaryDto&amp;gt;&lt;/span&gt;&lt;/p&gt;&lt;p style=&quot;margin: 0px 0px 0px 4px;&quot;&gt;&lt;span style=&quot;background-color: transparent;&quot;&gt;+&amp;nbsp;&lt;/span&gt;&lt;span style=&quot;background-color: transparent;&quot;&gt;GetElectronicsBooked():&amp;nbsp;&lt;/span&gt;&lt;span style=&quot;background-color: transparent;&quot;&gt;List&amp;lt;BookingElectronicDto&amp;gt;&lt;/span&gt;&lt;/p&gt;&lt;p style=&quot;margin: 0px 0px 0px 4px;&quot;&gt;&lt;span style=&quot;background-color: transparent;&quot;&gt;+&amp;nbsp;&lt;/span&gt;&lt;span style=&quot;background-color: transparent;&quot;&gt;GetBookingCoreData(int bookingId):&amp;nbsp;&lt;/span&gt;&lt;span style=&quot;background-color: transparent;&quot;&gt;BookingCoreDataDto&lt;/span&gt;&lt;span style=&quot;background-color: transparent; color: light-dark(rgb(0, 0, 0), rgb(255, 255, 255));&quot;&gt;&amp;nbsp;&lt;/span&gt;&lt;/p&gt;&lt;p style=&quot;margin: 0px 0px 0px 4px;&quot;&gt;+&amp;nbsp;CheckAvailabilityForEntity(int entityToRentId, DateOnly initBooking, DateOnly endBooking): Bool&lt;/p&gt;&lt;p style=&quot;margin: 0px 0px 0px 4px;&quot;&gt;+&amp;nbsp;CheckAvailabilityForExistingBooking(int entityToRentId, int currentBookingId, DateOnly initBooking, DateOnly endBooking): Bool&lt;/p&gt;" style="verticalAlign=top;align=left;overflow=fill;html=1;whiteSpace=wrap;fillColor=#d5e8d4;strokeColor=#82b366;" parent="WIyWlLk6GJQsqaUBKTNV-1" vertex="1">
          <mxGeometry x="930" y="-160" width="720" height="200" as="geometry" />
        </mxCell>
        <mxCell id="gw679d61oDOW8X4mK3xs-20" value="" style="endArrow=diamondThin;endFill=1;endSize=24;html=1;rounded=0;entryX=0.5;entryY=0;entryDx=0;entryDy=0;exitX=0.5;exitY=1;exitDx=0;exitDy=0;" parent="WIyWlLk6GJQsqaUBKTNV-1" source="gw679d61oDOW8X4mK3xs-19" edge="1" target="gw679d61oDOW8X4mK3xs-9">
          <mxGeometry width="160" relative="1" as="geometry">
            <mxPoint x="1050" y="-110" as="sourcePoint" />
            <mxPoint x="1080" y="39" as="targetPoint" />
            <Array as="points">
              <mxPoint x="1290" y="60" />
            </Array>
          </mxGeometry>
        </mxCell>
        <mxCell id="gw679d61oDOW8X4mK3xs-44" value="" style="endArrow=block;dashed=1;endFill=0;endSize=12;html=1;rounded=0;entryX=0;entryY=0.25;entryDx=0;entryDy=0;exitX=0;exitY=0.5;exitDx=0;exitDy=0;" parent="WIyWlLk6GJQsqaUBKTNV-1" source="PpOj1krbx0FKZyaxwS8G-30" target="gw679d61oDOW8X4mK3xs-19" edge="1">
          <mxGeometry width="160" relative="1" as="geometry">
            <mxPoint x="1290" y="-420" as="sourcePoint" />
            <mxPoint x="1384" y="-81" as="targetPoint" />
            <Array as="points">
              <mxPoint x="840" y="-290" />
              <mxPoint x="840" y="-110" />
            </Array>
          </mxGeometry>
        </mxCell>
        <mxCell id="-0rxYAURBGDoNV16Kf09-5" value="" style="endArrow=open;endFill=1;endSize=12;html=1;rounded=0;exitX=1;exitY=0.25;exitDx=0;exitDy=0;" parent="WIyWlLk6GJQsqaUBKTNV-1" source="-0rxYAURBGDoNV16Kf09-6" edge="1">
          <mxGeometry width="160" relative="1" as="geometry">
            <mxPoint x="160" y="670" as="sourcePoint" />
            <mxPoint x="320" y="670" as="targetPoint" />
          </mxGeometry>
        </mxCell>
        <mxCell id="-0rxYAURBGDoNV16Kf09-6" value="&lt;p style=&quot;margin:0px;margin-top:4px;text-align:center;&quot;&gt;&lt;i&gt;&amp;lt;&amp;lt;Interface&amp;gt;&amp;gt;&lt;/i&gt;&lt;br&gt;&lt;b&gt;IElectronicFactory&lt;/b&gt;&lt;/p&gt;&lt;hr size=&quot;1&quot; style=&quot;border-style:solid;&quot;&gt;&lt;p style=&quot;margin:0px;margin-left:4px;&quot;&gt;-&amp;nbsp; CreateElectronic():&amp;nbsp;&lt;span style=&quot;background-color: initial;&quot;&gt;ElectronicEntity&lt;/span&gt;&lt;/p&gt;&lt;p style=&quot;margin:0px;margin-left:4px;&quot;&gt;&lt;br&gt;&lt;/p&gt;" style="verticalAlign=top;align=left;overflow=fill;html=1;whiteSpace=wrap;fillColor=#f8cecc;strokeColor=#b85450;" parent="WIyWlLk6GJQsqaUBKTNV-1" vertex="1">
          <mxGeometry y="585" width="230" height="75" as="geometry" />
        </mxCell>
        <mxCell id="-0rxYAURBGDoNV16Kf09-7" value="&lt;p style=&quot;margin:0px;margin-top:4px;text-align:center;&quot;&gt;&lt;i&gt;&amp;lt;&amp;lt;Interface&amp;gt;&amp;gt;&lt;/i&gt;&lt;br&gt;&lt;b&gt;IVehicleFactory&lt;/b&gt;&lt;/p&gt;&lt;hr size=&quot;1&quot; style=&quot;border-style:solid;&quot;&gt;&lt;p style=&quot;margin:0px;margin-left:4px;&quot;&gt;-&amp;nbsp; CreateVehicle(): Vehicle&lt;span style=&quot;background-color: initial;&quot;&gt;Entity&lt;/span&gt;&lt;/p&gt;&lt;p style=&quot;margin:0px;margin-left:4px;&quot;&gt;&lt;br&gt;&lt;/p&gt;" style="verticalAlign=top;align=left;overflow=fill;html=1;whiteSpace=wrap;fillColor=#f8cecc;strokeColor=#b85450;" parent="WIyWlLk6GJQsqaUBKTNV-1" vertex="1">
          <mxGeometry y="670" width="230" height="75" as="geometry" />
        </mxCell>
        <mxCell id="-0rxYAURBGDoNV16Kf09-8" value="" style="endArrow=open;endFill=1;endSize=12;html=1;rounded=0;exitX=1;exitY=0.25;exitDx=0;exitDy=0;entryX=0;entryY=0.5;entryDx=0;entryDy=0;" parent="WIyWlLk6GJQsqaUBKTNV-1" source="-0rxYAURBGDoNV16Kf09-7" target="m4PaVz9kTDVC2fhNwPpV-27" edge="1">
          <mxGeometry width="160" relative="1" as="geometry">
            <mxPoint x="155" y="828" as="sourcePoint" />
            <mxPoint x="195" y="904" as="targetPoint" />
          </mxGeometry>
        </mxCell>
        <mxCell id="-0rxYAURBGDoNV16Kf09-9" value="&lt;p style=&quot;margin:0px;margin-top:4px;text-align:center;&quot;&gt;&lt;i&gt;&amp;lt;&amp;lt;Interface&amp;gt;&amp;gt;&lt;/i&gt;&lt;br&gt;&lt;b&gt;IIndumentaryFactory&lt;/b&gt;&lt;/p&gt;&lt;hr size=&quot;1&quot; style=&quot;border-style:solid;&quot;&gt;&lt;p style=&quot;margin:0px;margin-left:4px;&quot;&gt;-&amp;nbsp; CreateIndumentary(): Indumentary&lt;span style=&quot;background-color: initial;&quot;&gt;Entity&lt;/span&gt;&lt;/p&gt;&lt;p style=&quot;margin:0px;margin-left:4px;&quot;&gt;&lt;br&gt;&lt;/p&gt;" style="verticalAlign=top;align=left;overflow=fill;html=1;whiteSpace=wrap;fillColor=#f8cecc;strokeColor=#b85450;" parent="WIyWlLk6GJQsqaUBKTNV-1" vertex="1">
          <mxGeometry y="760" width="230" height="75" as="geometry" />
        </mxCell>
        <mxCell id="-0rxYAURBGDoNV16Kf09-10" value="" style="endArrow=open;endFill=1;endSize=12;html=1;rounded=0;exitX=1;exitY=0;exitDx=0;exitDy=0;entryX=0;entryY=0.5;entryDx=0;entryDy=0;" parent="WIyWlLk6GJQsqaUBKTNV-1" source="-0rxYAURBGDoNV16Kf09-9" target="m4PaVz9kTDVC2fhNwPpV-30" edge="1">
          <mxGeometry width="160" relative="1" as="geometry">
            <mxPoint x="240" y="828" as="sourcePoint" />
            <mxPoint x="330" y="827" as="targetPoint" />
          </mxGeometry>
        </mxCell>
        <mxCell id="-0rxYAURBGDoNV16Kf09-11" value="&lt;p style=&quot;margin:0px;margin-top:4px;text-align:center;&quot;&gt;&lt;i&gt;&amp;lt;&amp;lt;Interface&amp;gt;&amp;gt;&lt;/i&gt;&lt;br&gt;&lt;b&gt;IPropertyFactory&lt;/b&gt;&lt;/p&gt;&lt;hr size=&quot;1&quot; style=&quot;border-style:solid;&quot;&gt;&lt;p style=&quot;margin:0px;margin-left:4px;&quot;&gt;-&amp;nbsp; CreateProperty(): Property&lt;span style=&quot;background-color: initial;&quot;&gt;Entity&lt;/span&gt;&lt;/p&gt;&lt;p style=&quot;margin:0px;margin-left:4px;&quot;&gt;&lt;br&gt;&lt;/p&gt;" style="verticalAlign=top;align=left;overflow=fill;html=1;whiteSpace=wrap;fillColor=#f8cecc;strokeColor=#b85450;" parent="WIyWlLk6GJQsqaUBKTNV-1" vertex="1">
          <mxGeometry y="500" width="230" height="75" as="geometry" />
        </mxCell>
        <mxCell id="-0rxYAURBGDoNV16Kf09-12" value="" style="endArrow=open;endFill=1;endSize=12;html=1;rounded=0;exitX=1;exitY=0.75;exitDx=0;exitDy=0;entryX=0;entryY=0;entryDx=0;entryDy=0;" parent="WIyWlLk6GJQsqaUBKTNV-1" source="-0rxYAURBGDoNV16Kf09-11" target="m4PaVz9kTDVC2fhNwPpV-26" edge="1">
          <mxGeometry width="160" relative="1" as="geometry">
            <mxPoint x="270" y="560" as="sourcePoint" />
            <mxPoint x="360" y="626" as="targetPoint" />
          </mxGeometry>
        </mxCell>
        <mxCell id="-0rxYAURBGDoNV16Kf09-13" value="PropertyFactory&lt;div&gt;&lt;br&gt;&lt;/div&gt;" style="swimlane;fontStyle=1;align=center;verticalAlign=top;childLayout=stackLayout;horizontal=1;startSize=26;horizontalStack=0;resizeParent=1;resizeParentMax=0;resizeLast=0;collapsible=1;marginBottom=0;whiteSpace=wrap;html=1;fillColor=#f8cecc;strokeColor=#b85450;" parent="WIyWlLk6GJQsqaUBKTNV-1" vertex="1">
          <mxGeometry x="-320" y="511.5" width="240" height="52" as="geometry" />
        </mxCell>
        <mxCell id="-0rxYAURBGDoNV16Kf09-14" value="-&amp;nbsp; CreateProperty(): Property&lt;span style=&quot;background-color: initial;&quot;&gt;Entity&lt;/span&gt;" style="text;strokeColor=none;fillColor=none;align=left;verticalAlign=top;spacingLeft=4;spacingRight=4;overflow=hidden;rotatable=0;points=[[0,0.5],[1,0.5]];portConstraint=eastwest;whiteSpace=wrap;html=1;" parent="-0rxYAURBGDoNV16Kf09-13" vertex="1">
          <mxGeometry y="26" width="240" height="26" as="geometry" />
        </mxCell>
        <mxCell id="-0rxYAURBGDoNV16Kf09-17" value="ElectronicFactory&lt;div&gt;&lt;br&gt;&lt;/div&gt;" style="swimlane;fontStyle=1;align=center;verticalAlign=top;childLayout=stackLayout;horizontal=1;startSize=26;horizontalStack=0;resizeParent=1;resizeParentMax=0;resizeLast=0;collapsible=1;marginBottom=0;whiteSpace=wrap;html=1;fillColor=#f8cecc;strokeColor=#b85450;" parent="WIyWlLk6GJQsqaUBKTNV-1" vertex="1">
          <mxGeometry x="-320" y="596.5" width="240" height="52" as="geometry" />
        </mxCell>
        <mxCell id="-0rxYAURBGDoNV16Kf09-18" value="-&amp;nbsp; CreateElectronic(): Electronic&lt;span style=&quot;background-color: initial;&quot;&gt;Entity&lt;/span&gt;" style="text;strokeColor=none;fillColor=none;align=left;verticalAlign=top;spacingLeft=4;spacingRight=4;overflow=hidden;rotatable=0;points=[[0,0.5],[1,0.5]];portConstraint=eastwest;whiteSpace=wrap;html=1;" parent="-0rxYAURBGDoNV16Kf09-17" vertex="1">
          <mxGeometry y="26" width="240" height="26" as="geometry" />
        </mxCell>
        <mxCell id="-0rxYAURBGDoNV16Kf09-19" value="VehicleFactory&lt;div&gt;&lt;br&gt;&lt;/div&gt;" style="swimlane;fontStyle=1;align=center;verticalAlign=top;childLayout=stackLayout;horizontal=1;startSize=26;horizontalStack=0;resizeParent=1;resizeParentMax=0;resizeLast=0;collapsible=1;marginBottom=0;whiteSpace=wrap;html=1;fillColor=#f8cecc;strokeColor=#b85450;" parent="WIyWlLk6GJQsqaUBKTNV-1" vertex="1">
          <mxGeometry x="-320" y="681.5" width="240" height="52" as="geometry" />
        </mxCell>
        <mxCell id="-0rxYAURBGDoNV16Kf09-20" value="-&amp;nbsp; CreateVehicle(): Vehicle&lt;span style=&quot;background-color: initial;&quot;&gt;Entity&lt;/span&gt;" style="text;strokeColor=none;fillColor=none;align=left;verticalAlign=top;spacingLeft=4;spacingRight=4;overflow=hidden;rotatable=0;points=[[0,0.5],[1,0.5]];portConstraint=eastwest;whiteSpace=wrap;html=1;" parent="-0rxYAURBGDoNV16Kf09-19" vertex="1">
          <mxGeometry y="26" width="240" height="26" as="geometry" />
        </mxCell>
        <mxCell id="-0rxYAURBGDoNV16Kf09-21" value="IndumentaryFactory&lt;div&gt;&lt;br&gt;&lt;/div&gt;" style="swimlane;fontStyle=1;align=center;verticalAlign=top;childLayout=stackLayout;horizontal=1;startSize=26;horizontalStack=0;resizeParent=1;resizeParentMax=0;resizeLast=0;collapsible=1;marginBottom=0;whiteSpace=wrap;html=1;fillColor=#f8cecc;strokeColor=#b85450;" parent="WIyWlLk6GJQsqaUBKTNV-1" vertex="1">
          <mxGeometry x="-320" y="771.5" width="240" height="52" as="geometry" />
        </mxCell>
        <mxCell id="-0rxYAURBGDoNV16Kf09-22" value="-&amp;nbsp; CreateIndumentary(): Indumentary&lt;span style=&quot;background-color: initial;&quot;&gt;Entity&lt;/span&gt;" style="text;strokeColor=none;fillColor=none;align=left;verticalAlign=top;spacingLeft=4;spacingRight=4;overflow=hidden;rotatable=0;points=[[0,0.5],[1,0.5]];portConstraint=eastwest;whiteSpace=wrap;html=1;" parent="-0rxYAURBGDoNV16Kf09-21" vertex="1">
          <mxGeometry y="26" width="240" height="26" as="geometry" />
        </mxCell>
        <mxCell id="-0rxYAURBGDoNV16Kf09-23" value="" style="endArrow=block;dashed=1;endFill=0;endSize=12;html=1;rounded=0;exitX=1;exitY=0.5;exitDx=0;exitDy=0;entryX=0;entryY=0.5;entryDx=0;entryDy=0;" parent="WIyWlLk6GJQsqaUBKTNV-1" source="-0rxYAURBGDoNV16Kf09-14" target="-0rxYAURBGDoNV16Kf09-11" edge="1">
          <mxGeometry width="160" relative="1" as="geometry">
            <mxPoint x="-90" y="450" as="sourcePoint" />
            <mxPoint x="70" y="450" as="targetPoint" />
          </mxGeometry>
        </mxCell>
        <mxCell id="-0rxYAURBGDoNV16Kf09-24" value="" style="endArrow=block;dashed=1;endFill=0;endSize=12;html=1;rounded=0;exitX=1;exitY=0.5;exitDx=0;exitDy=0;entryX=0;entryY=0.5;entryDx=0;entryDy=0;" parent="WIyWlLk6GJQsqaUBKTNV-1" source="-0rxYAURBGDoNV16Kf09-18" target="-0rxYAURBGDoNV16Kf09-6" edge="1">
          <mxGeometry width="160" relative="1" as="geometry">
            <mxPoint x="-80" y="900" as="sourcePoint" />
            <mxPoint x="80" y="900" as="targetPoint" />
          </mxGeometry>
        </mxCell>
        <mxCell id="-0rxYAURBGDoNV16Kf09-25" value="" style="endArrow=block;dashed=1;endFill=0;endSize=12;html=1;rounded=0;exitX=1;exitY=0.5;exitDx=0;exitDy=0;entryX=0;entryY=0.5;entryDx=0;entryDy=0;" parent="WIyWlLk6GJQsqaUBKTNV-1" source="-0rxYAURBGDoNV16Kf09-20" target="-0rxYAURBGDoNV16Kf09-7" edge="1">
          <mxGeometry width="160" relative="1" as="geometry">
            <mxPoint x="-100" y="900" as="sourcePoint" />
            <mxPoint x="60" y="900" as="targetPoint" />
          </mxGeometry>
        </mxCell>
        <mxCell id="-0rxYAURBGDoNV16Kf09-26" value="" style="endArrow=block;dashed=1;endFill=0;endSize=12;html=1;rounded=0;exitX=1;exitY=0.5;exitDx=0;exitDy=0;entryX=0;entryY=0.5;entryDx=0;entryDy=0;" parent="WIyWlLk6GJQsqaUBKTNV-1" source="-0rxYAURBGDoNV16Kf09-22" target="-0rxYAURBGDoNV16Kf09-9" edge="1">
          <mxGeometry width="160" relative="1" as="geometry">
            <mxPoint x="-70" y="880" as="sourcePoint" />
            <mxPoint x="90" y="880" as="targetPoint" />
          </mxGeometry>
        </mxCell>
        <mxCell id="-0rxYAURBGDoNV16Kf09-41" value="VehicleEntity" style="swimlane;fontStyle=1;align=center;verticalAlign=top;childLayout=stackLayout;horizontal=1;startSize=26;horizontalStack=0;resizeParent=1;resizeParentMax=0;resizeLast=0;collapsible=1;marginBottom=0;whiteSpace=wrap;html=1;fillColor=#dae8fc;strokeColor=#6c8ebf;" parent="WIyWlLk6GJQsqaUBKTNV-1" vertex="1">
          <mxGeometry x="320" y="880" width="160" height="160" as="geometry" />
        </mxCell>
        <mxCell id="-0rxYAURBGDoNV16Kf09-42" value="- brand: String" style="text;strokeColor=none;fillColor=none;align=left;verticalAlign=top;spacingLeft=4;spacingRight=4;overflow=hidden;rotatable=0;points=[[0,0.5],[1,0.5]];portConstraint=eastwest;whiteSpace=wrap;html=1;" parent="-0rxYAURBGDoNV16Kf09-41" vertex="1">
          <mxGeometry y="26" width="160" height="26" as="geometry" />
        </mxCell>
        <mxCell id="-0rxYAURBGDoNV16Kf09-29" value="- model: String" style="text;strokeColor=none;fillColor=none;align=left;verticalAlign=top;spacingLeft=4;spacingRight=4;overflow=hidden;rotatable=0;points=[[0,0.5],[1,0.5]];portConstraint=eastwest;whiteSpace=wrap;html=1;" parent="-0rxYAURBGDoNV16Kf09-41" vertex="1">
          <mxGeometry y="52" width="160" height="26" as="geometry" />
        </mxCell>
        <mxCell id="-0rxYAURBGDoNV16Kf09-30" value="- passengerCapacity: Int" style="text;strokeColor=none;fillColor=none;align=left;verticalAlign=top;spacingLeft=4;spacingRight=4;overflow=hidden;rotatable=0;points=[[0,0.5],[1,0.5]];portConstraint=eastwest;whiteSpace=wrap;html=1;" parent="-0rxYAURBGDoNV16Kf09-41" vertex="1">
          <mxGeometry y="78" width="160" height="26" as="geometry" />
        </mxCell>
        <mxCell id="-0rxYAURBGDoNV16Kf09-32" value="- serialNumber: String" style="text;strokeColor=none;fillColor=none;align=left;verticalAlign=top;spacingLeft=4;spacingRight=4;overflow=hidden;rotatable=0;points=[[0,0.5],[1,0.5]];portConstraint=eastwest;whiteSpace=wrap;html=1;" parent="-0rxYAURBGDoNV16Kf09-41" vertex="1">
          <mxGeometry y="104" width="160" height="26" as="geometry" />
        </mxCell>
        <mxCell id="-0rxYAURBGDoNV16Kf09-43" value="" style="line;strokeWidth=1;fillColor=none;align=left;verticalAlign=middle;spacingTop=-1;spacingLeft=3;spacingRight=3;rotatable=0;labelPosition=right;points=[];portConstraint=eastwest;strokeColor=inherit;" parent="-0rxYAURBGDoNV16Kf09-41" vertex="1">
          <mxGeometry y="130" width="160" height="8" as="geometry" />
        </mxCell>
        <mxCell id="-0rxYAURBGDoNV16Kf09-44" value="+ Getter / Setter" style="text;strokeColor=none;fillColor=none;align=left;verticalAlign=top;spacingLeft=4;spacingRight=4;overflow=hidden;rotatable=0;points=[[0,0.5],[1,0.5]];portConstraint=eastwest;whiteSpace=wrap;html=1;" parent="-0rxYAURBGDoNV16Kf09-41" vertex="1">
          <mxGeometry y="138" width="160" height="22" as="geometry" />
        </mxCell>
        <mxCell id="-0rxYAURBGDoNV16Kf09-45" value="PropertyEntity" style="swimlane;fontStyle=1;align=center;verticalAlign=top;childLayout=stackLayout;horizontal=1;startSize=26;horizontalStack=0;resizeParent=1;resizeParentMax=0;resizeLast=0;collapsible=1;marginBottom=0;whiteSpace=wrap;html=1;fillColor=#dae8fc;strokeColor=#6c8ebf;" parent="WIyWlLk6GJQsqaUBKTNV-1" vertex="1">
          <mxGeometry x="320" y="1070" width="160" height="90" as="geometry" />
        </mxCell>
        <mxCell id="-0rxYAURBGDoNV16Kf09-46" value="- location: String" style="text;strokeColor=none;fillColor=none;align=left;verticalAlign=top;spacingLeft=4;spacingRight=4;overflow=hidden;rotatable=0;points=[[0,0.5],[1,0.5]];portConstraint=eastwest;whiteSpace=wrap;html=1;" parent="-0rxYAURBGDoNV16Kf09-45" vertex="1">
          <mxGeometry y="26" width="160" height="26" as="geometry" />
        </mxCell>
        <mxCell id="-0rxYAURBGDoNV16Kf09-47" value="" style="line;strokeWidth=1;fillColor=none;align=left;verticalAlign=middle;spacingTop=-1;spacingLeft=3;spacingRight=3;rotatable=0;labelPosition=right;points=[];portConstraint=eastwest;strokeColor=inherit;" parent="-0rxYAURBGDoNV16Kf09-45" vertex="1">
          <mxGeometry y="52" width="160" height="8" as="geometry" />
        </mxCell>
        <mxCell id="-0rxYAURBGDoNV16Kf09-48" value="+ Getter / Setter" style="text;strokeColor=none;fillColor=none;align=left;verticalAlign=top;spacingLeft=4;spacingRight=4;overflow=hidden;rotatable=0;points=[[0,0.5],[1,0.5]];portConstraint=eastwest;whiteSpace=wrap;html=1;" parent="-0rxYAURBGDoNV16Kf09-45" vertex="1">
          <mxGeometry y="60" width="160" height="30" as="geometry" />
        </mxCell>
        <mxCell id="-0rxYAURBGDoNV16Kf09-49" value="IndumentaryEntity" style="swimlane;fontStyle=1;align=center;verticalAlign=top;childLayout=stackLayout;horizontal=1;startSize=26;horizontalStack=0;resizeParent=1;resizeParentMax=0;resizeLast=0;collapsible=1;marginBottom=0;whiteSpace=wrap;html=1;fillColor=#dae8fc;strokeColor=#6c8ebf;" parent="WIyWlLk6GJQsqaUBKTNV-1" vertex="1">
          <mxGeometry x="320" y="1180" width="160" height="112" as="geometry" />
        </mxCell>
        <mxCell id="-0rxYAURBGDoNV16Kf09-50" value="- size: String" style="text;strokeColor=none;fillColor=none;align=left;verticalAlign=top;spacingLeft=4;spacingRight=4;overflow=hidden;rotatable=0;points=[[0,0.5],[1,0.5]];portConstraint=eastwest;whiteSpace=wrap;html=1;" parent="-0rxYAURBGDoNV16Kf09-49" vertex="1">
          <mxGeometry y="26" width="160" height="26" as="geometry" />
        </mxCell>
        <mxCell id="-0rxYAURBGDoNV16Kf09-53" value="- genre: String" style="text;strokeColor=none;fillColor=none;align=left;verticalAlign=top;spacingLeft=4;spacingRight=4;overflow=hidden;rotatable=0;points=[[0,0.5],[1,0.5]];portConstraint=eastwest;whiteSpace=wrap;html=1;" parent="-0rxYAURBGDoNV16Kf09-49" vertex="1">
          <mxGeometry y="52" width="160" height="26" as="geometry" />
        </mxCell>
        <mxCell id="-0rxYAURBGDoNV16Kf09-51" value="" style="line;strokeWidth=1;fillColor=none;align=left;verticalAlign=middle;spacingTop=-1;spacingLeft=3;spacingRight=3;rotatable=0;labelPosition=right;points=[];portConstraint=eastwest;strokeColor=inherit;" parent="-0rxYAURBGDoNV16Kf09-49" vertex="1">
          <mxGeometry y="78" width="160" height="8" as="geometry" />
        </mxCell>
        <mxCell id="-0rxYAURBGDoNV16Kf09-52" value="+ Getter / Setter" style="text;strokeColor=none;fillColor=none;align=left;verticalAlign=top;spacingLeft=4;spacingRight=4;overflow=hidden;rotatable=0;points=[[0,0.5],[1,0.5]];portConstraint=eastwest;whiteSpace=wrap;html=1;" parent="-0rxYAURBGDoNV16Kf09-49" vertex="1">
          <mxGeometry y="86" width="160" height="26" as="geometry" />
        </mxCell>
        <mxCell id="-0rxYAURBGDoNV16Kf09-54" value="Electronic" style="swimlane;fontStyle=1;align=center;verticalAlign=top;childLayout=stackLayout;horizontal=1;startSize=26;horizontalStack=0;resizeParent=1;resizeParentMax=0;resizeLast=0;collapsible=1;marginBottom=0;whiteSpace=wrap;html=1;fillColor=#dae8fc;strokeColor=#6c8ebf;" parent="WIyWlLk6GJQsqaUBKTNV-1" vertex="1">
          <mxGeometry x="320" y="1310" width="160" height="138" as="geometry" />
        </mxCell>
        <mxCell id="-0rxYAURBGDoNV16Kf09-55" value="- brand: String" style="text;strokeColor=none;fillColor=none;align=left;verticalAlign=top;spacingLeft=4;spacingRight=4;overflow=hidden;rotatable=0;points=[[0,0.5],[1,0.5]];portConstraint=eastwest;whiteSpace=wrap;html=1;" parent="-0rxYAURBGDoNV16Kf09-54" vertex="1">
          <mxGeometry y="26" width="160" height="26" as="geometry" />
        </mxCell>
        <mxCell id="-0rxYAURBGDoNV16Kf09-58" value="- model: String" style="text;strokeColor=none;fillColor=none;align=left;verticalAlign=top;spacingLeft=4;spacingRight=4;overflow=hidden;rotatable=0;points=[[0,0.5],[1,0.5]];portConstraint=eastwest;whiteSpace=wrap;html=1;" parent="-0rxYAURBGDoNV16Kf09-54" vertex="1">
          <mxGeometry y="52" width="160" height="26" as="geometry" />
        </mxCell>
        <mxCell id="-0rxYAURBGDoNV16Kf09-59" value="- serialNumber: String" style="text;strokeColor=none;fillColor=none;align=left;verticalAlign=top;spacingLeft=4;spacingRight=4;overflow=hidden;rotatable=0;points=[[0,0.5],[1,0.5]];portConstraint=eastwest;whiteSpace=wrap;html=1;" parent="-0rxYAURBGDoNV16Kf09-54" vertex="1">
          <mxGeometry y="78" width="160" height="26" as="geometry" />
        </mxCell>
        <mxCell id="-0rxYAURBGDoNV16Kf09-56" value="" style="line;strokeWidth=1;fillColor=none;align=left;verticalAlign=middle;spacingTop=-1;spacingLeft=3;spacingRight=3;rotatable=0;labelPosition=right;points=[];portConstraint=eastwest;strokeColor=inherit;" parent="-0rxYAURBGDoNV16Kf09-54" vertex="1">
          <mxGeometry y="104" width="160" height="8" as="geometry" />
        </mxCell>
        <mxCell id="-0rxYAURBGDoNV16Kf09-57" value="+ Getter / Setter" style="text;strokeColor=none;fillColor=none;align=left;verticalAlign=top;spacingLeft=4;spacingRight=4;overflow=hidden;rotatable=0;points=[[0,0.5],[1,0.5]];portConstraint=eastwest;whiteSpace=wrap;html=1;" parent="-0rxYAURBGDoNV16Kf09-54" vertex="1">
          <mxGeometry y="112" width="160" height="26" as="geometry" />
        </mxCell>
        <mxCell id="-0rxYAURBGDoNV16Kf09-60" value="Extends" style="endArrow=block;endSize=16;endFill=0;html=1;rounded=0;exitX=0.5;exitY=0;exitDx=0;exitDy=0;entryX=0.25;entryY=1;entryDx=0;entryDy=0;" parent="WIyWlLk6GJQsqaUBKTNV-1" source="-0rxYAURBGDoNV16Kf09-41" target="m4PaVz9kTDVC2fhNwPpV-26" edge="1">
          <mxGeometry width="160" relative="1" as="geometry">
            <mxPoint x="370" y="830" as="sourcePoint" />
            <mxPoint x="400" y="820" as="targetPoint" />
          </mxGeometry>
        </mxCell>
        <mxCell id="-0rxYAURBGDoNV16Kf09-61" value="Extends" style="endArrow=block;endSize=16;endFill=0;html=1;rounded=0;exitX=1;exitY=0.25;exitDx=0;exitDy=0;entryX=0.75;entryY=1;entryDx=0;entryDy=0;" parent="WIyWlLk6GJQsqaUBKTNV-1" source="-0rxYAURBGDoNV16Kf09-45" target="m4PaVz9kTDVC2fhNwPpV-26" edge="1">
          <mxGeometry width="160" relative="1" as="geometry">
            <mxPoint x="530" y="871.5" as="sourcePoint" />
            <mxPoint x="560" y="820" as="targetPoint" />
            <Array as="points">
              <mxPoint x="560" y="1092" />
            </Array>
          </mxGeometry>
        </mxCell>
        <mxCell id="-0rxYAURBGDoNV16Kf09-62" value="Extends" style="endArrow=block;endSize=16;endFill=0;html=1;rounded=0;exitX=1;exitY=0.5;exitDx=0;exitDy=0;entryX=0.873;entryY=1.014;entryDx=0;entryDy=0;entryPerimeter=0;" parent="WIyWlLk6GJQsqaUBKTNV-1" source="-0rxYAURBGDoNV16Kf09-50" target="-0rxYAURBGDoNV16Kf09-68" edge="1">
          <mxGeometry width="160" relative="1" as="geometry">
            <mxPoint x="750" y="860" as="sourcePoint" />
            <mxPoint x="750" y="760" as="targetPoint" />
            <Array as="points">
              <mxPoint x="600" y="1219" />
              <mxPoint x="600" y="910" />
            </Array>
          </mxGeometry>
        </mxCell>
        <mxCell id="-0rxYAURBGDoNV16Kf09-63" value="Extends" style="endArrow=block;endSize=16;endFill=0;html=1;rounded=0;exitX=1;exitY=0.5;exitDx=0;exitDy=0;" parent="WIyWlLk6GJQsqaUBKTNV-1" source="-0rxYAURBGDoNV16Kf09-55" edge="1">
          <mxGeometry width="160" relative="1" as="geometry">
            <mxPoint x="970" y="854" as="sourcePoint" />
            <mxPoint x="640" y="810" as="targetPoint" />
            <Array as="points">
              <mxPoint x="640" y="1349" />
            </Array>
          </mxGeometry>
        </mxCell>
        <mxCell id="-0rxYAURBGDoNV16Kf09-64" value="" style="endArrow=open;endFill=1;endSize=12;html=1;rounded=0;exitX=0;exitY=0.5;exitDx=0;exitDy=0;entryX=0;entryY=0.5;entryDx=0;entryDy=0;" parent="WIyWlLk6GJQsqaUBKTNV-1" source="-0rxYAURBGDoNV16Kf09-30" target="-0rxYAURBGDoNV16Kf09-19" edge="1">
          <mxGeometry width="160" relative="1" as="geometry">
            <mxPoint x="200" y="1155" as="sourcePoint" />
            <mxPoint x="290" y="1110" as="targetPoint" />
            <Array as="points">
              <mxPoint x="-520" y="971" />
              <mxPoint x="-520" y="708" />
            </Array>
          </mxGeometry>
        </mxCell>
        <mxCell id="-0rxYAURBGDoNV16Kf09-65" value="" style="endArrow=open;endFill=1;endSize=12;html=1;rounded=0;entryX=0;entryY=0.5;entryDx=0;entryDy=0;exitX=0;exitY=0.5;exitDx=0;exitDy=0;" parent="WIyWlLk6GJQsqaUBKTNV-1" source="-0rxYAURBGDoNV16Kf09-46" target="-0rxYAURBGDoNV16Kf09-14" edge="1">
          <mxGeometry width="160" relative="1" as="geometry">
            <mxPoint x="160" y="1050" as="sourcePoint" />
            <mxPoint x="-140" y="1080" as="targetPoint" />
            <Array as="points">
              <mxPoint x="-560" y="1109" />
              <mxPoint x="-560" y="551" />
            </Array>
          </mxGeometry>
        </mxCell>
        <mxCell id="-0rxYAURBGDoNV16Kf09-66" value="" style="endArrow=open;endFill=1;endSize=12;html=1;rounded=0;entryX=0;entryY=0.5;entryDx=0;entryDy=0;exitX=0;exitY=0.5;exitDx=0;exitDy=0;" parent="WIyWlLk6GJQsqaUBKTNV-1" source="-0rxYAURBGDoNV16Kf09-50" target="-0rxYAURBGDoNV16Kf09-22" edge="1">
          <mxGeometry width="160" relative="1" as="geometry">
            <mxPoint x="90" y="1130" as="sourcePoint" />
            <mxPoint x="100" y="880" as="targetPoint" />
            <Array as="points">
              <mxPoint x="-440" y="1219" />
              <mxPoint x="-440" y="1120" />
              <mxPoint x="-440" y="811" />
            </Array>
          </mxGeometry>
        </mxCell>
        <mxCell id="-0rxYAURBGDoNV16Kf09-67" value="" style="endArrow=open;endFill=1;endSize=12;html=1;rounded=0;entryX=0;entryY=0.5;entryDx=0;entryDy=0;exitX=0;exitY=0.5;exitDx=0;exitDy=0;" parent="WIyWlLk6GJQsqaUBKTNV-1" source="-0rxYAURBGDoNV16Kf09-55" target="-0rxYAURBGDoNV16Kf09-18" edge="1">
          <mxGeometry width="160" relative="1" as="geometry">
            <mxPoint x="310" y="1360" as="sourcePoint" />
            <mxPoint x="770" y="1170" as="targetPoint" />
            <Array as="points">
              <mxPoint x="-480" y="1350" />
              <mxPoint x="-480" y="1200" />
              <mxPoint x="-480" y="636" />
            </Array>
          </mxGeometry>
        </mxCell>
        <mxCell id="PpOj1krbx0FKZyaxwS8G-0" value="ClientEntity" style="swimlane;fontStyle=1;align=center;verticalAlign=top;childLayout=stackLayout;horizontal=1;startSize=26;horizontalStack=0;resizeParent=1;resizeParentMax=0;resizeLast=0;collapsible=1;marginBottom=0;whiteSpace=wrap;html=1;fillColor=#dae8fc;strokeColor=#6c8ebf;" vertex="1" parent="WIyWlLk6GJQsqaUBKTNV-1">
          <mxGeometry x="320" y="-68" width="320" height="216" as="geometry" />
        </mxCell>
        <mxCell id="PpOj1krbx0FKZyaxwS8G-1" value="- clientId: Int" style="text;strokeColor=none;fillColor=none;align=left;verticalAlign=top;spacingLeft=4;spacingRight=4;overflow=hidden;rotatable=0;points=[[0,0.5],[1,0.5]];portConstraint=eastwest;whiteSpace=wrap;html=1;" vertex="1" parent="PpOj1krbx0FKZyaxwS8G-0">
          <mxGeometry y="26" width="320" height="26" as="geometry" />
        </mxCell>
        <mxCell id="PpOj1krbx0FKZyaxwS8G-4" value="- name: String" style="text;strokeColor=none;fillColor=none;align=left;verticalAlign=top;spacingLeft=4;spacingRight=4;overflow=hidden;rotatable=0;points=[[0,0.5],[1,0.5]];portConstraint=eastwest;whiteSpace=wrap;html=1;" vertex="1" parent="PpOj1krbx0FKZyaxwS8G-0">
          <mxGeometry y="52" width="320" height="26" as="geometry" />
        </mxCell>
        <mxCell id="PpOj1krbx0FKZyaxwS8G-5" value="- lastName: String" style="text;strokeColor=none;fillColor=none;align=left;verticalAlign=top;spacingLeft=4;spacingRight=4;overflow=hidden;rotatable=0;points=[[0,0.5],[1,0.5]];portConstraint=eastwest;whiteSpace=wrap;html=1;" vertex="1" parent="PpOj1krbx0FKZyaxwS8G-0">
          <mxGeometry y="78" width="320" height="26" as="geometry" />
        </mxCell>
        <mxCell id="PpOj1krbx0FKZyaxwS8G-6" value="- phoneNumber: String" style="text;strokeColor=none;fillColor=none;align=left;verticalAlign=top;spacingLeft=4;spacingRight=4;overflow=hidden;rotatable=0;points=[[0,0.5],[1,0.5]];portConstraint=eastwest;whiteSpace=wrap;html=1;" vertex="1" parent="PpOj1krbx0FKZyaxwS8G-0">
          <mxGeometry y="104" width="320" height="26" as="geometry" />
        </mxCell>
        <mxCell id="PpOj1krbx0FKZyaxwS8G-7" value="- createdAt: DateOnly" style="text;strokeColor=none;fillColor=none;align=left;verticalAlign=top;spacingLeft=4;spacingRight=4;overflow=hidden;rotatable=0;points=[[0,0.5],[1,0.5]];portConstraint=eastwest;whiteSpace=wrap;html=1;" vertex="1" parent="PpOj1krbx0FKZyaxwS8G-0">
          <mxGeometry y="130" width="320" height="26" as="geometry" />
        </mxCell>
        <mxCell id="PpOj1krbx0FKZyaxwS8G-8" value="- isDeleted: Bool" style="text;strokeColor=none;fillColor=none;align=left;verticalAlign=top;spacingLeft=4;spacingRight=4;overflow=hidden;rotatable=0;points=[[0,0.5],[1,0.5]];portConstraint=eastwest;whiteSpace=wrap;html=1;" vertex="1" parent="PpOj1krbx0FKZyaxwS8G-0">
          <mxGeometry y="156" width="320" height="26" as="geometry" />
        </mxCell>
        <mxCell id="PpOj1krbx0FKZyaxwS8G-2" value="" style="line;strokeWidth=1;fillColor=none;align=left;verticalAlign=middle;spacingTop=-1;spacingLeft=3;spacingRight=3;rotatable=0;labelPosition=right;points=[];portConstraint=eastwest;strokeColor=inherit;" vertex="1" parent="PpOj1krbx0FKZyaxwS8G-0">
          <mxGeometry y="182" width="320" height="8" as="geometry" />
        </mxCell>
        <mxCell id="PpOj1krbx0FKZyaxwS8G-3" value="+ Getter / setter" style="text;strokeColor=none;fillColor=none;align=left;verticalAlign=top;spacingLeft=4;spacingRight=4;overflow=hidden;rotatable=0;points=[[0,0.5],[1,0.5]];portConstraint=eastwest;whiteSpace=wrap;html=1;" vertex="1" parent="PpOj1krbx0FKZyaxwS8G-0">
          <mxGeometry y="190" width="320" height="26" as="geometry" />
        </mxCell>
        <mxCell id="PpOj1krbx0FKZyaxwS8G-12" value="" style="endArrow=diamondThin;endFill=1;endSize=24;html=1;rounded=0;exitX=0;exitY=0.5;exitDx=0;exitDy=0;entryX=0;entryY=0.5;entryDx=0;entryDy=0;" edge="1" parent="WIyWlLk6GJQsqaUBKTNV-1" source="PpOj1krbx0FKZyaxwS8G-6" target="-0rxYAURBGDoNV16Kf09-72">
          <mxGeometry width="160" relative="1" as="geometry">
            <mxPoint x="420" y="190" as="sourcePoint" />
            <mxPoint x="580" y="190" as="targetPoint" />
            <Array as="points">
              <mxPoint x="270" y="50" />
              <mxPoint x="270" y="341" />
            </Array>
          </mxGeometry>
        </mxCell>
        <mxCell id="PpOj1krbx0FKZyaxwS8G-18" value="&lt;span style=&quot;font-weight: 400;&quot;&gt;BookingDaoSQLSERVER&lt;/span&gt;" style="swimlane;fontStyle=1;align=center;verticalAlign=top;childLayout=stackLayout;horizontal=1;startSize=26;horizontalStack=0;resizeParent=1;resizeParentMax=0;resizeLast=0;collapsible=1;marginBottom=0;whiteSpace=wrap;html=1;fillColor=#d5e8d4;strokeColor=#82b366;" vertex="1" parent="WIyWlLk6GJQsqaUBKTNV-1">
          <mxGeometry x="930" y="-570" width="720" height="320" as="geometry" />
        </mxCell>
        <mxCell id="PpOj1krbx0FKZyaxwS8G-22" value="&amp;nbsp;- oConnectionString: ConnectionString&amp;nbsp; &amp;nbsp;" style="text;strokeColor=none;fillColor=none;align=left;verticalAlign=top;spacingLeft=4;spacingRight=4;overflow=hidden;rotatable=0;points=[[0,0.5],[1,0.5]];portConstraint=eastwest;whiteSpace=wrap;html=1;" vertex="1" parent="PpOj1krbx0FKZyaxwS8G-18">
          <mxGeometry y="26" width="720" height="26" as="geometry" />
        </mxCell>
        <mxCell id="PpOj1krbx0FKZyaxwS8G-20" value="" style="line;strokeWidth=1;fillColor=none;align=left;verticalAlign=middle;spacingTop=-1;spacingLeft=3;spacingRight=3;rotatable=0;labelPosition=right;points=[];portConstraint=eastwest;strokeColor=inherit;" vertex="1" parent="PpOj1krbx0FKZyaxwS8G-18">
          <mxGeometry y="52" width="720" height="8" as="geometry" />
        </mxCell>
        <mxCell id="PpOj1krbx0FKZyaxwS8G-19" value="&lt;span style=&quot;color: light-dark(rgb(0, 0, 0), rgb(255, 255, 255)); background-color: transparent;&quot;&gt;&amp;nbsp;+&amp;nbsp;&lt;/span&gt;&lt;span style=&quot;color: light-dark(rgb(0, 0, 0), rgb(255, 255, 255)); background-color: transparent;&quot;&gt;InsertEntity(BookingEntity booking, int entityToRent): Void&lt;/span&gt;" style="text;strokeColor=none;fillColor=none;align=left;verticalAlign=top;spacingLeft=4;spacingRight=4;overflow=hidden;rotatable=0;points=[[0,0.5],[1,0.5]];portConstraint=eastwest;whiteSpace=wrap;html=1;" vertex="1" parent="PpOj1krbx0FKZyaxwS8G-18">
          <mxGeometry y="60" width="720" height="26" as="geometry" />
        </mxCell>
        <mxCell id="PpOj1krbx0FKZyaxwS8G-21" value="&lt;span style=&quot;color: light-dark(rgb(0, 0, 0), rgb(255, 255, 255)); background-color: transparent;&quot;&gt;&amp;nbsp;+&amp;nbsp;&lt;/span&gt;&lt;span style=&quot;background-color: transparent;&quot;&gt;UpdateEntity(int bookingId, BookingEntity booking, int entityToRentId): Void&lt;/span&gt;" style="text;strokeColor=none;fillColor=none;align=left;verticalAlign=top;spacingLeft=4;spacingRight=4;overflow=hidden;rotatable=0;points=[[0,0.5],[1,0.5]];portConstraint=eastwest;whiteSpace=wrap;html=1;" vertex="1" parent="PpOj1krbx0FKZyaxwS8G-18">
          <mxGeometry y="86" width="720" height="26" as="geometry" />
        </mxCell>
        <mxCell id="PpOj1krbx0FKZyaxwS8G-23" value="&lt;span style=&quot;color: light-dark(rgb(0, 0, 0), rgb(255, 255, 255)); background-color: transparent;&quot;&gt;&amp;nbsp;+&amp;nbsp;&lt;/span&gt;&lt;span style=&quot;background-color: transparent;&quot;&gt;DeleteEntity(int bookingId): Void&lt;/span&gt;" style="text;strokeColor=none;fillColor=none;align=left;verticalAlign=top;spacingLeft=4;spacingRight=4;overflow=hidden;rotatable=0;points=[[0,0.5],[1,0.5]];portConstraint=eastwest;whiteSpace=wrap;html=1;" vertex="1" parent="PpOj1krbx0FKZyaxwS8G-18">
          <mxGeometry y="112" width="720" height="26" as="geometry" />
        </mxCell>
        <mxCell id="PpOj1krbx0FKZyaxwS8G-24" value="&lt;p style=&quot;margin: 0px 0px 0px 4px;&quot;&gt;&lt;span style=&quot;background-color: transparent; color: light-dark(rgb(0, 0, 0), rgb(255, 255, 255));&quot;&gt;+&amp;nbsp;&lt;/span&gt;&lt;span style=&quot;background-color: transparent;&quot;&gt;GetPropertiesBooked():&amp;nbsp;&lt;/span&gt;&lt;span style=&quot;background-color: transparent;&quot;&gt;List&amp;lt;BookingPropertyDTO&amp;gt;&lt;/span&gt;&lt;/p&gt;&lt;div&gt;&lt;span style=&quot;background-color: transparent;&quot;&gt;&lt;br&gt;&lt;/span&gt;&lt;/div&gt;" style="text;strokeColor=none;fillColor=none;align=left;verticalAlign=top;spacingLeft=4;spacingRight=4;overflow=hidden;rotatable=0;points=[[0,0.5],[1,0.5]];portConstraint=eastwest;whiteSpace=wrap;html=1;" vertex="1" parent="PpOj1krbx0FKZyaxwS8G-18">
          <mxGeometry y="138" width="720" height="26" as="geometry" />
        </mxCell>
        <mxCell id="PpOj1krbx0FKZyaxwS8G-25" value="&lt;span style=&quot;color: light-dark(rgb(0, 0, 0), rgb(255, 255, 255)); background-color: transparent;&quot;&gt;&amp;nbsp;+&amp;nbsp;&lt;/span&gt;&lt;span style=&quot;background-color: transparent;&quot;&gt;GetVehiclesBooked():&amp;nbsp;&lt;/span&gt;&lt;span style=&quot;background-color: transparent;&quot;&gt;List&amp;lt;BookingVehicleDTO&amp;gt;&lt;/span&gt;" style="text;strokeColor=none;fillColor=none;align=left;verticalAlign=top;spacingLeft=4;spacingRight=4;overflow=hidden;rotatable=0;points=[[0,0.5],[1,0.5]];portConstraint=eastwest;whiteSpace=wrap;html=1;" vertex="1" parent="PpOj1krbx0FKZyaxwS8G-18">
          <mxGeometry y="164" width="720" height="26" as="geometry" />
        </mxCell>
        <mxCell id="PpOj1krbx0FKZyaxwS8G-27" value="&lt;span style=&quot;background-color: transparent;&quot;&gt;&amp;nbsp;+&amp;nbsp;&lt;/span&gt;&lt;span style=&quot;background-color: transparent;&quot;&gt;GetIndumentariesBooked():&amp;nbsp;&lt;/span&gt;&lt;span style=&quot;background-color: transparent;&quot;&gt;List&amp;lt;BookingIndumentaryDto&amp;gt;&lt;/span&gt;" style="text;strokeColor=none;fillColor=none;align=left;verticalAlign=top;spacingLeft=4;spacingRight=4;overflow=hidden;rotatable=0;points=[[0,0.5],[1,0.5]];portConstraint=eastwest;whiteSpace=wrap;html=1;" vertex="1" parent="PpOj1krbx0FKZyaxwS8G-18">
          <mxGeometry y="190" width="720" height="26" as="geometry" />
        </mxCell>
        <mxCell id="PpOj1krbx0FKZyaxwS8G-28" value="&lt;span style=&quot;background-color: transparent;&quot;&gt;&amp;nbsp;+&amp;nbsp;&lt;/span&gt;&lt;span style=&quot;background-color: transparent;&quot;&gt;GetElectronicsBooked():&amp;nbsp;&lt;/span&gt;&lt;span style=&quot;background-color: transparent;&quot;&gt;List&amp;lt;BookingElectronicDto&amp;gt;&lt;/span&gt;" style="text;strokeColor=none;fillColor=none;align=left;verticalAlign=top;spacingLeft=4;spacingRight=4;overflow=hidden;rotatable=0;points=[[0,0.5],[1,0.5]];portConstraint=eastwest;whiteSpace=wrap;html=1;" vertex="1" parent="PpOj1krbx0FKZyaxwS8G-18">
          <mxGeometry y="216" width="720" height="26" as="geometry" />
        </mxCell>
        <mxCell id="PpOj1krbx0FKZyaxwS8G-29" value="&lt;p style=&quot;margin: 0px 0px 0px 4px;&quot;&gt;&lt;span style=&quot;background-color: transparent;&quot;&gt;+&amp;nbsp;&lt;/span&gt;&lt;span style=&quot;background-color: transparent;&quot;&gt;GetBookingCoreData(int bookingId):&amp;nbsp;&lt;/span&gt;&lt;span style=&quot;background-color: transparent;&quot;&gt;BookingCoreDataDto&lt;/span&gt;&lt;span style=&quot;background-color: transparent; color: light-dark(rgb(0, 0, 0), rgb(255, 255, 255));&quot;&gt;&amp;nbsp;&lt;/span&gt;&lt;/p&gt;&lt;div&gt;&lt;span style=&quot;background-color: transparent; color: light-dark(rgb(0, 0, 0), rgb(255, 255, 255));&quot;&gt;&lt;br&gt;&lt;/span&gt;&lt;/div&gt;" style="text;strokeColor=none;fillColor=none;align=left;verticalAlign=top;spacingLeft=4;spacingRight=4;overflow=hidden;rotatable=0;points=[[0,0.5],[1,0.5]];portConstraint=eastwest;whiteSpace=wrap;html=1;" vertex="1" parent="PpOj1krbx0FKZyaxwS8G-18">
          <mxGeometry y="242" width="720" height="26" as="geometry" />
        </mxCell>
        <mxCell id="PpOj1krbx0FKZyaxwS8G-30" value="&lt;p style=&quot;margin: 0px 0px 0px 4px;&quot;&gt;+&amp;nbsp;CheckAvailabilityForEntity(int entityToRentId, DateOnly initBooking, DateOnly endBooking): Bool&lt;/p&gt;&lt;div&gt;&lt;br&gt;&lt;/div&gt;" style="text;strokeColor=none;fillColor=none;align=left;verticalAlign=top;spacingLeft=4;spacingRight=4;overflow=hidden;rotatable=0;points=[[0,0.5],[1,0.5]];portConstraint=eastwest;whiteSpace=wrap;html=1;" vertex="1" parent="PpOj1krbx0FKZyaxwS8G-18">
          <mxGeometry y="268" width="720" height="26" as="geometry" />
        </mxCell>
        <mxCell id="PpOj1krbx0FKZyaxwS8G-31" value="&amp;nbsp;+&amp;nbsp;CheckAvailabilityForExistingBooking(int entityToRentId, int currentBookingId, DateOnly initBooking, DateOnly endBooking): Bool" style="text;strokeColor=none;fillColor=none;align=left;verticalAlign=top;spacingLeft=4;spacingRight=4;overflow=hidden;rotatable=0;points=[[0,0.5],[1,0.5]];portConstraint=eastwest;whiteSpace=wrap;html=1;" vertex="1" parent="PpOj1krbx0FKZyaxwS8G-18">
          <mxGeometry y="294" width="720" height="26" as="geometry" />
        </mxCell>
        <mxCell id="PpOj1krbx0FKZyaxwS8G-32" value="ClientController" style="swimlane;fontStyle=1;align=center;verticalAlign=top;childLayout=stackLayout;horizontal=1;startSize=26;horizontalStack=0;resizeParent=1;resizeParentMax=0;resizeLast=0;collapsible=1;marginBottom=0;whiteSpace=wrap;html=1;fillColor=#d5e8d4;strokeColor=#82b366;" vertex="1" parent="WIyWlLk6GJQsqaUBKTNV-1">
          <mxGeometry x="240" y="-350" width="480" height="190" as="geometry" />
        </mxCell>
        <mxCell id="PpOj1krbx0FKZyaxwS8G-33" value="+ oIClientDao: IClientDao" style="text;strokeColor=none;fillColor=none;align=left;verticalAlign=top;spacingLeft=4;spacingRight=4;overflow=hidden;rotatable=0;points=[[0,0.5],[1,0.5]];portConstraint=eastwest;whiteSpace=wrap;html=1;" vertex="1" parent="PpOj1krbx0FKZyaxwS8G-32">
          <mxGeometry y="26" width="480" height="26" as="geometry" />
        </mxCell>
        <mxCell id="PpOj1krbx0FKZyaxwS8G-34" value="" style="line;strokeWidth=1;fillColor=none;align=left;verticalAlign=middle;spacingTop=-1;spacingLeft=3;spacingRight=3;rotatable=0;labelPosition=right;points=[];portConstraint=eastwest;strokeColor=inherit;" vertex="1" parent="PpOj1krbx0FKZyaxwS8G-32">
          <mxGeometry y="52" width="480" height="8" as="geometry" />
        </mxCell>
        <mxCell id="PpOj1krbx0FKZyaxwS8G-35" value="+&amp;nbsp;CreateClient(string clientName, string lastName, string phoneNumber): Void" style="text;strokeColor=none;fillColor=none;align=left;verticalAlign=top;spacingLeft=4;spacingRight=4;overflow=hidden;rotatable=0;points=[[0,0.5],[1,0.5]];portConstraint=eastwest;whiteSpace=wrap;html=1;" vertex="1" parent="PpOj1krbx0FKZyaxwS8G-32">
          <mxGeometry y="60" width="480" height="26" as="geometry" />
        </mxCell>
        <mxCell id="PpOj1krbx0FKZyaxwS8G-36" value="+&amp;nbsp;UpdateClient(int clientId, string name, string lastName, string phoneNumber): Void" style="text;strokeColor=none;fillColor=none;align=left;verticalAlign=top;spacingLeft=4;spacingRight=4;overflow=hidden;rotatable=0;points=[[0,0.5],[1,0.5]];portConstraint=eastwest;whiteSpace=wrap;html=1;" vertex="1" parent="PpOj1krbx0FKZyaxwS8G-32">
          <mxGeometry y="86" width="480" height="26" as="geometry" />
        </mxCell>
        <mxCell id="PpOj1krbx0FKZyaxwS8G-37" value="+&amp;nbsp;GetClient(int clientId): ClientEntity&amp;nbsp;" style="text;strokeColor=none;fillColor=none;align=left;verticalAlign=top;spacingLeft=4;spacingRight=4;overflow=hidden;rotatable=0;points=[[0,0.5],[1,0.5]];portConstraint=eastwest;whiteSpace=wrap;html=1;" vertex="1" parent="PpOj1krbx0FKZyaxwS8G-32">
          <mxGeometry y="112" width="480" height="26" as="geometry" />
        </mxCell>
        <mxCell id="PpOj1krbx0FKZyaxwS8G-38" value="+&amp;nbsp;GetClients():&amp;nbsp;List&amp;lt;ClientEntity&amp;gt; &amp;nbsp;" style="text;strokeColor=none;fillColor=none;align=left;verticalAlign=top;spacingLeft=4;spacingRight=4;overflow=hidden;rotatable=0;points=[[0,0.5],[1,0.5]];portConstraint=eastwest;whiteSpace=wrap;html=1;" vertex="1" parent="PpOj1krbx0FKZyaxwS8G-32">
          <mxGeometry y="138" width="480" height="26" as="geometry" />
        </mxCell>
        <mxCell id="PpOj1krbx0FKZyaxwS8G-39" value="+&amp;nbsp;DeleteClient(int clientId, DialogResult result): Void" style="text;strokeColor=none;fillColor=none;align=left;verticalAlign=top;spacingLeft=4;spacingRight=4;overflow=hidden;rotatable=0;points=[[0,0.5],[1,0.5]];portConstraint=eastwest;whiteSpace=wrap;html=1;" vertex="1" parent="PpOj1krbx0FKZyaxwS8G-32">
          <mxGeometry y="164" width="480" height="26" as="geometry" />
        </mxCell>
        <mxCell id="PpOj1krbx0FKZyaxwS8G-40" value="Use" style="endArrow=open;endSize=12;dashed=1;html=1;rounded=0;entryX=0.5;entryY=0;entryDx=0;entryDy=0;exitX=0;exitY=0.5;exitDx=0;exitDy=0;" edge="1" parent="WIyWlLk6GJQsqaUBKTNV-1" source="PpOj1krbx0FKZyaxwS8G-39" target="PpOj1krbx0FKZyaxwS8G-0">
          <mxGeometry width="160" relative="1" as="geometry">
            <mxPoint x="630" y="-120" as="sourcePoint" />
            <mxPoint x="480" y="-120" as="targetPoint" />
            <Array as="points">
              <mxPoint x="200" y="-173" />
              <mxPoint x="200" y="-120" />
              <mxPoint x="480" y="-120" />
            </Array>
          </mxGeometry>
        </mxCell>
        <mxCell id="PpOj1krbx0FKZyaxwS8G-42" value="&lt;p style=&quot;margin:0px;margin-top:4px;text-align:center;&quot;&gt;&lt;i&gt;&amp;lt;&amp;lt;Interface&amp;gt;&amp;gt;&lt;/i&gt;&lt;br&gt;&lt;b&gt;IGenericDao&lt;/b&gt;&lt;/p&gt;&lt;hr size=&quot;1&quot; style=&quot;border-style:solid;&quot;&gt;&lt;p style=&quot;margin:0px;margin-left:4px;&quot;&gt;+&amp;nbsp;InsertEntity(Class entity): Void&lt;/p&gt;&lt;p style=&quot;margin:0px;margin-left:4px;&quot;&gt;+&amp;nbsp;UpdateEntity(int rentableEntityId,Class entity): Void&lt;/p&gt;&lt;p style=&quot;margin:0px;margin-left:4px;&quot;&gt;+&amp;nbsp;GetEntityById(int rentableEntityId): Class&lt;/p&gt;&lt;p style=&quot;margin:0px;margin-left:4px;&quot;&gt;+&amp;nbsp;GetAllEntities(): List&amp;lt;Class&amp;gt;&lt;/p&gt;&lt;p style=&quot;margin:0px;margin-left:4px;&quot;&gt;+ DeleteEntity(int rentableEntityId): Void&lt;/p&gt;" style="verticalAlign=top;align=left;overflow=fill;html=1;whiteSpace=wrap;fillColor=#d5e8d4;strokeColor=#82b366;" vertex="1" parent="WIyWlLk6GJQsqaUBKTNV-1">
          <mxGeometry x="1360" y="563.5" width="310" height="128" as="geometry" />
        </mxCell>
        <mxCell id="PpOj1krbx0FKZyaxwS8G-43" value="Extends" style="endArrow=block;endSize=16;endFill=0;html=1;rounded=0;entryX=1;entryY=0.25;entryDx=0;entryDy=0;exitX=1;exitY=0.25;exitDx=0;exitDy=0;" edge="1" parent="WIyWlLk6GJQsqaUBKTNV-1" source="PpOj1krbx0FKZyaxwS8G-70" target="PpOj1krbx0FKZyaxwS8G-42">
          <mxGeometry width="160" relative="1" as="geometry">
            <mxPoint x="600.0000000000005" y="-486.5" as="sourcePoint" />
            <mxPoint x="1490" y="1020" as="targetPoint" />
            <Array as="points">
              <mxPoint x="760" y="-486" />
              <mxPoint x="760" y="-680" />
              <mxPoint x="1880" y="-680" />
              <mxPoint x="1880" y="596" />
            </Array>
          </mxGeometry>
        </mxCell>
        <mxCell id="PpOj1krbx0FKZyaxwS8G-45" value="" style="endArrow=diamondThin;endFill=1;endSize=24;html=1;rounded=0;entryX=0.5;entryY=0;entryDx=0;entryDy=0;exitX=0.5;exitY=1;exitDx=0;exitDy=0;" edge="1" parent="WIyWlLk6GJQsqaUBKTNV-1" source="PpOj1krbx0FKZyaxwS8G-70" target="PpOj1krbx0FKZyaxwS8G-32">
          <mxGeometry width="160" relative="1" as="geometry">
            <mxPoint x="480.00000000000045" y="-453" as="sourcePoint" />
            <mxPoint x="740" y="-260" as="targetPoint" />
            <Array as="points" />
          </mxGeometry>
        </mxCell>
        <mxCell id="PpOj1krbx0FKZyaxwS8G-46" value="" style="endArrow=block;dashed=1;endFill=0;endSize=12;html=1;rounded=0;exitX=0;exitY=0.5;exitDx=0;exitDy=0;entryX=0;entryY=0.25;entryDx=0;entryDy=0;" edge="1" parent="WIyWlLk6GJQsqaUBKTNV-1" source="PpOj1krbx0FKZyaxwS8G-54" target="PpOj1krbx0FKZyaxwS8G-70">
          <mxGeometry width="160" relative="1" as="geometry">
            <mxPoint x="210" y="-580" as="sourcePoint" />
            <mxPoint x="360.00000000000045" y="-486.5" as="targetPoint" />
            <Array as="points">
              <mxPoint x="290" y="-583" />
              <mxPoint x="290" y="-486" />
            </Array>
          </mxGeometry>
        </mxCell>
        <mxCell id="PpOj1krbx0FKZyaxwS8G-47" value="ClientDaoSQLSERVER" style="swimlane;fontStyle=1;align=center;verticalAlign=top;childLayout=stackLayout;horizontal=1;startSize=26;horizontalStack=0;resizeParent=1;resizeParentMax=0;resizeLast=0;collapsible=1;marginBottom=0;whiteSpace=wrap;html=1;fillColor=#d5e8d4;strokeColor=#82b366;" vertex="1" parent="WIyWlLk6GJQsqaUBKTNV-1">
          <mxGeometry x="320" y="-760" width="320" height="190" as="geometry" />
        </mxCell>
        <mxCell id="PpOj1krbx0FKZyaxwS8G-48" value="- oConnectionString: ConnectionString" style="text;strokeColor=none;fillColor=none;align=left;verticalAlign=top;spacingLeft=4;spacingRight=4;overflow=hidden;rotatable=0;points=[[0,0.5],[1,0.5]];portConstraint=eastwest;whiteSpace=wrap;html=1;" vertex="1" parent="PpOj1krbx0FKZyaxwS8G-47">
          <mxGeometry y="26" width="320" height="26" as="geometry" />
        </mxCell>
        <mxCell id="PpOj1krbx0FKZyaxwS8G-49" value="" style="line;strokeWidth=1;fillColor=none;align=left;verticalAlign=middle;spacingTop=-1;spacingLeft=3;spacingRight=3;rotatable=0;labelPosition=right;points=[];portConstraint=eastwest;strokeColor=inherit;" vertex="1" parent="PpOj1krbx0FKZyaxwS8G-47">
          <mxGeometry y="52" width="320" height="8" as="geometry" />
        </mxCell>
        <mxCell id="PpOj1krbx0FKZyaxwS8G-50" value="+ InsertEntity(ClientEntity client): Void" style="text;strokeColor=none;fillColor=none;align=left;verticalAlign=top;spacingLeft=4;spacingRight=4;overflow=hidden;rotatable=0;points=[[0,0.5],[1,0.5]];portConstraint=eastwest;whiteSpace=wrap;html=1;" vertex="1" parent="PpOj1krbx0FKZyaxwS8G-47">
          <mxGeometry y="60" width="320" height="26" as="geometry" />
        </mxCell>
        <mxCell id="PpOj1krbx0FKZyaxwS8G-51" value="+&amp;nbsp;UpdateEntity(int clientId, ClientEntity entity): Void" style="text;strokeColor=none;fillColor=none;align=left;verticalAlign=top;spacingLeft=4;spacingRight=4;overflow=hidden;rotatable=0;points=[[0,0.5],[1,0.5]];portConstraint=eastwest;whiteSpace=wrap;html=1;" vertex="1" parent="PpOj1krbx0FKZyaxwS8G-47">
          <mxGeometry y="86" width="320" height="26" as="geometry" />
        </mxCell>
        <mxCell id="PpOj1krbx0FKZyaxwS8G-52" value="+&amp;nbsp;DeleteEntity(int clientId): Void" style="text;strokeColor=none;fillColor=none;align=left;verticalAlign=top;spacingLeft=4;spacingRight=4;overflow=hidden;rotatable=0;points=[[0,0.5],[1,0.5]];portConstraint=eastwest;whiteSpace=wrap;html=1;" vertex="1" parent="PpOj1krbx0FKZyaxwS8G-47">
          <mxGeometry y="112" width="320" height="26" as="geometry" />
        </mxCell>
        <mxCell id="PpOj1krbx0FKZyaxwS8G-53" value="+&amp;nbsp;GetEntityById(int clientId): ClientEntity" style="text;strokeColor=none;fillColor=none;align=left;verticalAlign=top;spacingLeft=4;spacingRight=4;overflow=hidden;rotatable=0;points=[[0,0.5],[1,0.5]];portConstraint=eastwest;whiteSpace=wrap;html=1;" vertex="1" parent="PpOj1krbx0FKZyaxwS8G-47">
          <mxGeometry y="138" width="320" height="26" as="geometry" />
        </mxCell>
        <mxCell id="PpOj1krbx0FKZyaxwS8G-54" value="+&amp;nbsp;GetAllEntities(): List&amp;lt;ClientEntity&amp;gt;" style="text;strokeColor=none;fillColor=none;align=left;verticalAlign=top;spacingLeft=4;spacingRight=4;overflow=hidden;rotatable=0;points=[[0,0.5],[1,0.5]];portConstraint=eastwest;whiteSpace=wrap;html=1;" vertex="1" parent="PpOj1krbx0FKZyaxwS8G-47">
          <mxGeometry y="164" width="320" height="26" as="geometry" />
        </mxCell>
        <mxCell id="PpOj1krbx0FKZyaxwS8G-55" value="VehicleController" style="swimlane;fontStyle=1;align=center;verticalAlign=top;childLayout=stackLayout;horizontal=1;startSize=26;horizontalStack=0;resizeParent=1;resizeParentMax=0;resizeLast=0;collapsible=1;marginBottom=0;whiteSpace=wrap;html=1;fillColor=#d5e8d4;strokeColor=#82b366;" vertex="1" parent="WIyWlLk6GJQsqaUBKTNV-1">
          <mxGeometry x="710" y="840" width="1040" height="190" as="geometry" />
        </mxCell>
        <mxCell id="PpOj1krbx0FKZyaxwS8G-56" value="- oIVehicleDao: IVehicleDao" style="text;strokeColor=none;fillColor=none;align=left;verticalAlign=top;spacingLeft=4;spacingRight=4;overflow=hidden;rotatable=0;points=[[0,0.5],[1,0.5]];portConstraint=eastwest;whiteSpace=wrap;html=1;" vertex="1" parent="PpOj1krbx0FKZyaxwS8G-55">
          <mxGeometry y="26" width="1040" height="26" as="geometry" />
        </mxCell>
        <mxCell id="PpOj1krbx0FKZyaxwS8G-57" value="" style="line;strokeWidth=1;fillColor=none;align=left;verticalAlign=middle;spacingTop=-1;spacingLeft=3;spacingRight=3;rotatable=0;labelPosition=right;points=[];portConstraint=eastwest;strokeColor=inherit;" vertex="1" parent="PpOj1krbx0FKZyaxwS8G-55">
          <mxGeometry y="52" width="1040" height="8" as="geometry" />
        </mxCell>
        <mxCell id="PpOj1krbx0FKZyaxwS8G-58" value="+&amp;nbsp;CreateVehicle(string vehicleType,string vehicleDescription,string costUsage,string vehicleBrand,string vehicleModel,string passengerCapacity,string serialNumber): Void" style="text;strokeColor=none;fillColor=none;align=left;verticalAlign=top;spacingLeft=4;spacingRight=4;overflow=hidden;rotatable=0;points=[[0,0.5],[1,0.5]];portConstraint=eastwest;whiteSpace=wrap;html=1;" vertex="1" parent="PpOj1krbx0FKZyaxwS8G-55">
          <mxGeometry y="60" width="1040" height="26" as="geometry" />
        </mxCell>
        <mxCell id="PpOj1krbx0FKZyaxwS8G-63" value="+&amp;nbsp;UpdateVehicle(int rentableId, string vehicleType, string vehicleDescription, string costUsage, string vehicleBrand, string vehicleModel, string passengerCapacity, string serialNumber): Void" style="text;strokeColor=none;fillColor=none;align=left;verticalAlign=top;spacingLeft=4;spacingRight=4;overflow=hidden;rotatable=0;points=[[0,0.5],[1,0.5]];portConstraint=eastwest;whiteSpace=wrap;html=1;" vertex="1" parent="PpOj1krbx0FKZyaxwS8G-55">
          <mxGeometry y="86" width="1040" height="26" as="geometry" />
        </mxCell>
        <mxCell id="PpOj1krbx0FKZyaxwS8G-64" value="+&amp;nbsp;DeleteVehicle(int rentableId, DialogResult result): Void" style="text;strokeColor=none;fillColor=none;align=left;verticalAlign=top;spacingLeft=4;spacingRight=4;overflow=hidden;rotatable=0;points=[[0,0.5],[1,0.5]];portConstraint=eastwest;whiteSpace=wrap;html=1;" vertex="1" parent="PpOj1krbx0FKZyaxwS8G-55">
          <mxGeometry y="112" width="1040" height="26" as="geometry" />
        </mxCell>
        <mxCell id="PpOj1krbx0FKZyaxwS8G-65" value="+&amp;nbsp;GetVehicleById(int rentableId): VehicleEntity" style="text;strokeColor=none;fillColor=none;align=left;verticalAlign=top;spacingLeft=4;spacingRight=4;overflow=hidden;rotatable=0;points=[[0,0.5],[1,0.5]];portConstraint=eastwest;whiteSpace=wrap;html=1;" vertex="1" parent="PpOj1krbx0FKZyaxwS8G-55">
          <mxGeometry y="138" width="1040" height="26" as="geometry" />
        </mxCell>
        <mxCell id="PpOj1krbx0FKZyaxwS8G-66" value="+&amp;nbsp;GetAllVehicles():&amp;nbsp;List&amp;lt;VehicleEntity&amp;gt;&amp;nbsp;" style="text;strokeColor=none;fillColor=none;align=left;verticalAlign=top;spacingLeft=4;spacingRight=4;overflow=hidden;rotatable=0;points=[[0,0.5],[1,0.5]];portConstraint=eastwest;whiteSpace=wrap;html=1;" vertex="1" parent="PpOj1krbx0FKZyaxwS8G-55">
          <mxGeometry y="164" width="1040" height="26" as="geometry" />
        </mxCell>
        <mxCell id="PpOj1krbx0FKZyaxwS8G-67" value="Use" style="endArrow=open;endSize=12;dashed=1;html=1;rounded=0;entryX=1;entryY=0.5;entryDx=0;entryDy=0;exitX=0;exitY=0.5;exitDx=0;exitDy=0;" edge="1" parent="WIyWlLk6GJQsqaUBKTNV-1" source="PpOj1krbx0FKZyaxwS8G-58" target="-0rxYAURBGDoNV16Kf09-42">
          <mxGeometry width="160" relative="1" as="geometry">
            <mxPoint x="880" y="927" as="sourcePoint" />
            <mxPoint x="840" y="910" as="targetPoint" />
          </mxGeometry>
        </mxCell>
        <mxCell id="PpOj1krbx0FKZyaxwS8G-69" value="«interface»&lt;br&gt;&lt;b&gt;IVehicleDao&lt;/b&gt;" style="html=1;whiteSpace=wrap;fillColor=#d5e8d4;strokeColor=#82b366;" vertex="1" parent="WIyWlLk6GJQsqaUBKTNV-1">
          <mxGeometry x="1840" y="840" width="240" height="50" as="geometry" />
        </mxCell>
        <mxCell id="PpOj1krbx0FKZyaxwS8G-70" value="«interface»&lt;br&gt;&lt;b&gt;IClientDao&lt;/b&gt;" style="html=1;whiteSpace=wrap;fillColor=#d5e8d4;strokeColor=#82b366;" vertex="1" parent="WIyWlLk6GJQsqaUBKTNV-1">
          <mxGeometry x="360" y="-500" width="240" height="50" as="geometry" />
        </mxCell>
        <mxCell id="PpOj1krbx0FKZyaxwS8G-71" value="Extends" style="endArrow=block;endSize=16;endFill=0;html=1;rounded=0;entryX=0.5;entryY=0;entryDx=0;entryDy=0;exitX=1;exitY=1;exitDx=0;exitDy=0;" edge="1" parent="WIyWlLk6GJQsqaUBKTNV-1" source="PpOj1krbx0FKZyaxwS8G-42" target="PpOj1krbx0FKZyaxwS8G-69">
          <mxGeometry width="160" relative="1" as="geometry">
            <mxPoint x="1780" y="720" as="sourcePoint" />
            <mxPoint x="1940" y="720" as="targetPoint" />
            <Array as="points">
              <mxPoint x="1960" y="692" />
            </Array>
          </mxGeometry>
        </mxCell>
        <mxCell id="PpOj1krbx0FKZyaxwS8G-72" value="" style="endArrow=diamondThin;endFill=1;endSize=24;html=1;rounded=0;entryX=1;entryY=0.5;entryDx=0;entryDy=0;exitX=0;exitY=0.75;exitDx=0;exitDy=0;" edge="1" parent="WIyWlLk6GJQsqaUBKTNV-1" source="PpOj1krbx0FKZyaxwS8G-69" target="PpOj1krbx0FKZyaxwS8G-56">
          <mxGeometry width="160" relative="1" as="geometry">
            <mxPoint x="1820" y="1000" as="sourcePoint" />
            <mxPoint x="1980" y="1000" as="targetPoint" />
          </mxGeometry>
        </mxCell>
        <mxCell id="PpOj1krbx0FKZyaxwS8G-73" value="VehicleDaoSQLSERVER" style="swimlane;fontStyle=1;align=center;verticalAlign=top;childLayout=stackLayout;horizontal=1;startSize=26;horizontalStack=0;resizeParent=1;resizeParentMax=0;resizeLast=0;collapsible=1;marginBottom=0;whiteSpace=wrap;html=1;fillColor=#d5e8d4;strokeColor=#82b366;" vertex="1" parent="WIyWlLk6GJQsqaUBKTNV-1">
          <mxGeometry x="2160" y="840" width="320" height="190" as="geometry" />
        </mxCell>
        <mxCell id="PpOj1krbx0FKZyaxwS8G-74" value="- oConnectionString: ConnectionString&amp;nbsp; &amp;nbsp;" style="text;strokeColor=none;fillColor=none;align=left;verticalAlign=top;spacingLeft=4;spacingRight=4;overflow=hidden;rotatable=0;points=[[0,0.5],[1,0.5]];portConstraint=eastwest;whiteSpace=wrap;html=1;" vertex="1" parent="PpOj1krbx0FKZyaxwS8G-73">
          <mxGeometry y="26" width="320" height="26" as="geometry" />
        </mxCell>
        <mxCell id="PpOj1krbx0FKZyaxwS8G-75" value="" style="line;strokeWidth=1;fillColor=none;align=left;verticalAlign=middle;spacingTop=-1;spacingLeft=3;spacingRight=3;rotatable=0;labelPosition=right;points=[];portConstraint=eastwest;strokeColor=inherit;" vertex="1" parent="PpOj1krbx0FKZyaxwS8G-73">
          <mxGeometry y="52" width="320" height="8" as="geometry" />
        </mxCell>
        <mxCell id="PpOj1krbx0FKZyaxwS8G-76" value="+&amp;nbsp;InsertEntity(VehicleEntity vehicle): Void" style="text;strokeColor=none;fillColor=none;align=left;verticalAlign=top;spacingLeft=4;spacingRight=4;overflow=hidden;rotatable=0;points=[[0,0.5],[1,0.5]];portConstraint=eastwest;whiteSpace=wrap;html=1;" vertex="1" parent="PpOj1krbx0FKZyaxwS8G-73">
          <mxGeometry y="60" width="320" height="26" as="geometry" />
        </mxCell>
        <mxCell id="PpOj1krbx0FKZyaxwS8G-77" value="+&amp;nbsp;UpdateEntity(int rentableId, VehicleEntity vehicle): Void" style="text;strokeColor=none;fillColor=none;align=left;verticalAlign=top;spacingLeft=4;spacingRight=4;overflow=hidden;rotatable=0;points=[[0,0.5],[1,0.5]];portConstraint=eastwest;whiteSpace=wrap;html=1;" vertex="1" parent="PpOj1krbx0FKZyaxwS8G-73">
          <mxGeometry y="86" width="320" height="26" as="geometry" />
        </mxCell>
        <mxCell id="PpOj1krbx0FKZyaxwS8G-78" value="+&amp;nbsp;DeleteEntity(int rentableId): Void&amp;nbsp;" style="text;strokeColor=none;fillColor=none;align=left;verticalAlign=top;spacingLeft=4;spacingRight=4;overflow=hidden;rotatable=0;points=[[0,0.5],[1,0.5]];portConstraint=eastwest;whiteSpace=wrap;html=1;" vertex="1" parent="PpOj1krbx0FKZyaxwS8G-73">
          <mxGeometry y="112" width="320" height="26" as="geometry" />
        </mxCell>
        <mxCell id="PpOj1krbx0FKZyaxwS8G-79" value="+&amp;nbsp;GetEntityById(int rentableId):&amp;nbsp;VehicleEntity&amp;nbsp;" style="text;strokeColor=none;fillColor=none;align=left;verticalAlign=top;spacingLeft=4;spacingRight=4;overflow=hidden;rotatable=0;points=[[0,0.5],[1,0.5]];portConstraint=eastwest;whiteSpace=wrap;html=1;" vertex="1" parent="PpOj1krbx0FKZyaxwS8G-73">
          <mxGeometry y="138" width="320" height="26" as="geometry" />
        </mxCell>
        <mxCell id="PpOj1krbx0FKZyaxwS8G-80" value="+&amp;nbsp;GetAllEntities():&amp;nbsp;List&amp;lt;VehicleEntity&amp;gt;&amp;nbsp;" style="text;strokeColor=none;fillColor=none;align=left;verticalAlign=top;spacingLeft=4;spacingRight=4;overflow=hidden;rotatable=0;points=[[0,0.5],[1,0.5]];portConstraint=eastwest;whiteSpace=wrap;html=1;" vertex="1" parent="PpOj1krbx0FKZyaxwS8G-73">
          <mxGeometry y="164" width="320" height="26" as="geometry" />
        </mxCell>
        <mxCell id="PpOj1krbx0FKZyaxwS8G-81" value="" style="endArrow=block;dashed=1;endFill=0;endSize=12;html=1;rounded=0;entryX=1;entryY=0.5;entryDx=0;entryDy=0;exitX=0.25;exitY=0;exitDx=0;exitDy=0;" edge="1" parent="WIyWlLk6GJQsqaUBKTNV-1" source="PpOj1krbx0FKZyaxwS8G-73" target="PpOj1krbx0FKZyaxwS8G-69">
          <mxGeometry width="160" relative="1" as="geometry">
            <mxPoint x="1910" y="980" as="sourcePoint" />
            <mxPoint x="2070" y="980" as="targetPoint" />
            <Array as="points">
              <mxPoint x="2240" y="800" />
              <mxPoint x="2120" y="800" />
              <mxPoint x="2120" y="865" />
            </Array>
          </mxGeometry>
        </mxCell>
      </root>
    </mxGraphModel>
  </diagram>
</mxfile>
